<?xml version="1.0" standalone="no"?>
<!DOCTYPE svg PUBLIC "-//W3C//DTD SVG 20010904//EN"
 "http://www.w3.org/TR/2001/REC-SVG-20010904/DTD/svg10.dtd">
<svg version="1.0" xmlns="http://www.w3.org/2000/svg"
 width="225.000000pt" height="225.000000pt" viewBox="0 0 225.000000 225.000000"
 preserveAspectRatio="xMidYMid meet">

<g transform="translate(0.000000,225.000000) scale(0.100000,-0.100000)"
fill="#000000" stroke="none">
<path d="M1290 2050 c-11 -11 -20 -29 -20 -40 0 -11 9 -29 20 -40 18 -18 20
-33 20 -183 0 -104 -4 -167 -11 -174 -6 -6 -9 -21 -7 -34 2 -19 10 -25 35 -27
28 -3 33 1 39 23 4 15 2 31 -5 38 -7 7 -11 67 -11 174 0 151 2 166 21 192 18
25 19 32 8 52 -23 44 -57 51 -89 19z"/>
<path d="M752 1858 c-16 -16 -15 -63 1 -76 6 -5 23 -12 37 -14 17 -2 51 -38
121 -128 54 -69 97 -129 97 -135 -1 -32 4 -44 22 -50 48 -15 67 51 21 70 -13
6 -65 65 -117 132 -76 98 -94 128 -94 155 0 41 -15 58 -50 58 -14 0 -31 -5
-38 -12z"/>
<path d="M1306 1481 c-3 -4 -1 -37 5 -72 6 -35 8 -76 5 -91 -4 -20 -1 -28 9
-28 10 0 13 8 10 28 -14 90 -15 115 -4 128 6 8 9 21 5 29 -6 16 -22 20 -30 6z"/>
<path d="M1557 1404 c-4 -4 -7 -15 -7 -24 0 -10 -25 -43 -55 -75 -57 -59 -66
-75 -40 -75 8 0 15 6 15 13 0 19 80 108 107 118 16 6 23 15 21 26 -3 19 -29
29 -41 17z"/>
<path d="M1085 1350 c-8 -13 3 -30 19 -30 7 0 34 -22 60 -50 47 -50 56 -57 56
-42 0 8 -117 132 -125 132 -2 0 -7 -4 -10 -10z"/>
<path d="M492 1338 c-13 -13 -16 -47 -4 -64 14 -20 45 -25 68 -9 21 13 37 13
161 -6 77 -12 145 -28 155 -36 26 -23 63 -13 63 17 0 24 -3 25 -65 27 -112 3
-278 37 -301 62 -22 23 -58 28 -77 9z"/>
<path d="M1285 1204 c-25 -25 -16 -75 18 -94 24 -13 30 -13 55 0 53 30 33 110
-29 110 -15 0 -35 -7 -44 -16z"/>
<path d="M1056 1153 c-11 -11 -6 -23 9 -23 8 0 15 4 15 9 0 13 -16 22 -24 14z"/>
<path d="M1699 1144 c-12 -11 -41 -16 -104 -18 -56 -2 -90 -7 -93 -15 -5 -15
25 -26 41 -13 20 16 146 23 167 9 16 -9 23 -8 36 5 14 14 15 20 4 32 -16 20
-32 20 -51 0z"/>
<path d="M1175 1140 c3 -5 10 -10 16 -10 5 0 9 5 9 10 0 6 -7 10 -16 10 -8 0
-12 -4 -9 -10z"/>
<path d="M1161 1031 c-8 -5 -9 -11 -3 -15 5 -3 12 1 16 9 6 17 6 18 -13 6z"/>
<path d="M938 986 c-19 -37 -226 -178 -249 -171 -43 14 -79 -41 -47 -73 27
-27 78 -7 78 29 0 21 215 174 244 174 27 0 43 29 27 49 -19 23 -38 20 -53 -8z"/>
<path d="M1465 970 c-8 -14 3 -30 21 -30 26 0 172 -104 176 -125 4 -25 53 -34
61 -11 10 26 -4 46 -32 46 -30 0 -181 98 -181 117 0 15 -36 17 -45 3z"/>
<path d="M1136 854 c-8 -8 -13 -21 -9 -29 3 -9 -12 -68 -33 -131 -31 -93 -44
-118 -62 -125 -18 -7 -23 -15 -20 -35 4 -35 31 -53 56 -38 12 9 16 23 15 50
-3 45 60 246 83 264 18 16 18 46 -1 54 -8 3 -21 -2 -29 -10z"/>
<path d="M1337 864 c-11 -11 -8 -42 4 -46 19 -6 70 -196 63 -238 -5 -32 -3
-39 13 -44 11 -4 28 -4 37 0 22 8 20 51 -2 63 -21 11 -73 171 -76 230 -1 34
-21 52 -39 35z"/>
<path d="M1380 365 c0 -51 3 -65 15 -65 12 0 15 14 15 65 0 51 -3 65 -15 65
-12 0 -15 -14 -15 -65z"/>
<path d="M1440 365 c0 -51 3 -65 15 -65 12 0 15 14 15 65 0 51 -3 65 -15 65
-12 0 -15 -14 -15 -65z"/>
<path d="M1500 415 c0 -8 7 -15 15 -15 11 0 15 -12 15 -50 0 -43 3 -50 20 -50
17 0 20 7 20 50 0 38 4 50 15 50 8 0 15 7 15 15 0 11 -12 15 -50 15 -38 0 -50
-4 -50 -15z"/>
<path d="M1636 418 c-3 -7 -6 -37 -9 -66 -3 -45 -2 -52 12 -50 9 2 19 17 22
33 l6 30 8 -32 c8 -34 32 -45 40 -18 15 48 18 50 24 20 3 -16 13 -31 22 -33
16 -3 16 9 3 96 -6 40 -31 43 -45 5 -21 -58 -22 -59 -34 -18 -12 40 -41 59
-49 33z"/>
</g>
</svg>
