<svg xmlns="http://www.w3.org/2000/svg" width="225" height="225" viewBox="0 0 225 225" version="1.1"><path d="M 101.223 24.557 C 98.090 26.751, 98.235 31.452, 101.500 33.592 L 104 35.230 104.214 53.865 L 104.428 72.500 104.964 55 L 105.500 37.500 110.214 51.500 C 113.190 60.340, 114.727 66.444, 114.383 68.061 C 113.727 71.151, 115.891 73.295, 119.195 72.827 C 122.256 72.393, 122.931 67.773, 120.215 65.847 C 119.059 65.028, 116.629 59.408, 114.011 51.500 C 111.643 44.350, 109.476 37.825, 109.195 37 C 108.914 36.175, 113.367 41.575, 119.090 49 C 124.814 56.425, 129.373 62.871, 129.223 63.324 C 129.073 63.778, 129.433 63.850, 130.024 63.485 C 130.688 63.075, 130.749 62.379, 130.184 61.661 C 110.829 37.039, 109.131 34.442, 109.685 30.314 C 110.146 26.874, 109.879 26.029, 107.891 24.636 C 104.992 22.606, 104.025 22.594, 101.223 24.557 M 77.750 37.662 C 78.438 37.940, 79.563 37.940, 80.250 37.662 C 80.938 37.385, 80.375 37.158, 79 37.158 C 77.625 37.158, 77.063 37.385, 77.750 37.662 M 73.158 43 C 73.158 44.375, 73.385 44.938, 73.662 44.250 C 73.940 43.563, 73.940 42.438, 73.662 41.750 C 73.385 41.063, 73.158 41.625, 73.158 43 M 84.158 43 C 84.158 44.375, 84.385 44.938, 84.662 44.250 C 84.940 43.563, 84.940 42.438, 84.662 41.750 C 84.385 41.063, 84.158 41.625, 84.158 43 M 77.750 48.662 C 78.438 48.940, 79.563 48.940, 80.250 48.662 C 80.938 48.385, 80.375 48.158, 79 48.158 C 77.625 48.158, 77.063 48.385, 77.750 48.662 M 57.381 64.541 C 56.048 66.576, 55.939 67.572, 56.837 69.541 C 57.453 70.893, 58.754 72.058, 59.729 72.128 C 60.703 72.198, 62.850 72.311, 64.500 72.378 C 68.308 72.533, 90.280 85.252, 92.443 88.553 C 94.772 92.108, 100 91.291, 100 87.371 C 100 85.442, 96.892 82.827, 95.318 83.432 C 94.534 83.732, 88.660 80.973, 82.263 77.300 C 75.867 73.627, 71.096 70.468, 71.662 70.279 C 72.228 70.091, 78.847 71.239, 86.372 72.830 C 99.383 75.583, 102.953 75.539, 100.054 72.663 C 99.160 71.777, 99.030 71.889, 99.504 73.136 C 100.057 74.589, 98.918 74.515, 89.313 72.473 C 83.366 71.209, 75.912 69.653, 72.750 69.016 C 69.142 68.290, 67 67.352, 67 66.501 C 67 64.362, 64.088 62, 61.452 62 C 59.979 62, 58.401 62.985, 57.381 64.541 M 131.750 70.662 C 132.438 70.940, 133.563 70.940, 134.250 70.662 C 134.938 70.385, 134.375 70.158, 133 70.158 C 131.625 70.158, 131.063 70.385, 131.750 70.662 M 67 73.344 C 67 73.753, 71.525 79.341, 77.056 85.761 C 85.566 95.640, 86.834 97.544, 85.306 98.147 C 83.710 98.777, 83.696 98.868, 85.191 98.930 C 86.121 98.968, 87.157 98.554, 87.494 98.009 C 87.979 97.225, 80.602 88.045, 67.837 73.550 C 67.376 73.027, 67 72.935, 67 73.344 M 129.336 77.567 C 129.005 78.429, 129.132 79.532, 129.617 80.017 C 130.128 80.528, 130.500 79.866, 130.500 78.450 C 130.500 75.611, 130.180 75.368, 129.336 77.567 M 142.667 77.667 C 142.300 78.033, 142 79.328, 142 80.544 C 142 81.760, 141.416 83.240, 140.702 83.832 C 139.988 84.425, 137.934 87.068, 136.137 89.705 C 133.506 93.567, 133.418 93.833, 135.685 91.071 C 137.233 89.186, 139.311 86.711, 140.303 85.571 C 142.105 83.501, 142.105 83.501, 141.433 86 C 141.063 87.375, 140.055 90.075, 139.194 92 C 137.187 96.481, 137.152 97.500, 139 97.500 C 139.825 97.500, 140.515 96.825, 140.534 96 C 140.553 95.175, 141.206 92.250, 141.986 89.500 C 143.257 85.021, 143.478 84.760, 144.103 87 C 144.718 89.204, 144.812 89.080, 144.900 85.950 C 144.955 83.998, 145.510 81.890, 146.133 81.267 C 146.756 80.644, 146.995 79.429, 146.664 78.567 C 146.049 76.964, 143.862 76.471, 142.667 77.667 M 117.367 82.485 C 117.053 83.305, 117.980 85.375, 119.434 87.104 C 120.885 88.828, 122.599 92.210, 123.243 94.619 C 123.888 97.029, 124.996 99, 125.707 99 C 127.568 99, 127.329 97.841, 124.385 92.574 C 122.947 90.001, 122 87.667, 122.279 87.387 C 122.559 87.107, 124.666 88.665, 126.961 90.848 C 131.266 94.944, 132.635 94.648, 131.715 89.823 C 131.325 87.777, 131.256 87.833, 131.136 90.300 L 131 93.100 126.570 89.396 C 124.133 87.360, 121.875 84.637, 121.551 83.347 C 120.894 80.731, 118.249 80.187, 117.367 82.485 M 120.272 96 C 120.272 98.475, 120.467 99.487, 120.706 98.250 C 120.944 97.013, 120.944 94.987, 120.706 93.750 C 120.467 92.513, 120.272 93.525, 120.272 96 M 151.872 93.750 C 150.629 95.336, 150.664 95.371, 152.250 94.128 C 153.213 93.373, 154 92.585, 154 92.378 C 154 91.555, 153.179 92.084, 151.872 93.750 M 145.136 95.191 C 145.061 96.671, 144.550 98.160, 144 98.500 C 143.450 98.840, 143 99.642, 143 100.282 C 143 100.921, 143.705 100.438, 144.568 99.207 C 145.430 97.976, 145.941 95.964, 145.704 94.735 C 145.330 92.796, 145.254 92.857, 145.136 95.191 M 147.872 95.750 C 146.629 97.336, 146.664 97.371, 148.250 96.128 C 149.213 95.373, 150 94.585, 150 94.378 C 150 93.555, 149.179 94.084, 147.872 95.750 M 165.362 96.500 C 165.045 97.325, 163.597 98.032, 162.143 98.070 C 159.913 98.130, 159.798 98.257, 161.410 98.890 C 162.934 99.487, 162.024 100.165, 156.910 102.238 C 153.385 103.668, 149.713 105.085, 148.750 105.387 C 147.787 105.690, 147 106.415, 147 107 C 147 108.844, 150.003 109.305, 151.787 107.735 C 152.729 106.906, 155.975 105.006, 159 103.512 L 164.500 100.796 159 106.648 L 153.501 112.500 159.529 106.750 C 163.213 103.236, 166.434 101, 167.810 101 C 170.517 101, 171.700 98.549, 169.989 96.487 C 168.402 94.574, 166.098 94.580, 165.362 96.500 M 78.813 97.683 C 79.534 97.972, 80.397 97.936, 80.729 97.604 C 81.061 97.272, 80.471 97.036, 79.417 97.079 C 78.252 97.127, 78.015 97.364, 78.813 97.683 M 91 97.393 C 91 97.609, 91.698 98.054, 92.552 98.382 C 93.442 98.723, 93.843 98.555, 93.493 97.989 C 92.906 97.038, 91 96.583, 91 97.393 M 104.683 99.650 C 103.332 101.001, 104.037 103, 105.865 103 C 106.891 103, 109.028 104, 110.615 105.223 C 112.837 106.936, 113.157 107.017, 112.008 105.579 C 110.614 103.835, 110.680 103.761, 113.008 104.468 C 114.379 104.884, 115.927 105.624, 116.450 106.112 C 117.624 107.209, 120 107.280, 120 106.218 C 120 105.788, 117.862 104.776, 115.250 103.968 L 110.500 102.500 115.500 101.907 L 120.500 101.314 113.950 101.157 C 110.347 101.071, 106.943 100.543, 106.383 99.983 C 105.824 99.424, 105.059 99.274, 104.683 99.650 M 150.750 99.706 C 151.988 99.944, 154.012 99.944, 155.250 99.706 C 156.488 99.467, 155.475 99.272, 153 99.272 C 150.525 99.272, 149.512 99.467, 150.750 99.706 M 77.813 100.683 C 78.534 100.972, 79.397 100.936, 79.729 100.604 C 80.061 100.272, 79.471 100.036, 78.417 100.079 C 77.252 100.127, 77.015 100.364, 77.813 100.683 M 83.813 101.683 C 84.534 101.972, 85.397 101.936, 85.729 101.604 C 86.061 101.272, 85.471 101.036, 84.417 101.079 C 83.252 101.127, 83.015 101.364, 83.813 101.683 M 131.750 102.662 C 132.438 102.940, 133.563 102.940, 134.250 102.662 C 134.938 102.385, 134.375 102.158, 133 102.158 C 131.625 102.158, 131.063 102.385, 131.750 102.662 M 72.252 111.420 C 64.424 116.051, 57.764 119.426, 57.451 118.920 C 56.631 117.594, 51.613 117.787, 50.200 119.200 C 48.433 120.967, 48.740 124.454, 50.829 126.345 C 53.248 128.534, 54.911 128.432, 57.572 125.932 C 59.751 123.885, 59.915 123.880, 74.015 125.432 C 81.849 126.295, 89.662 126.945, 91.379 126.877 C 93.095 126.809, 87.525 125.950, 79 124.969 C 70.475 123.987, 63.275 123.104, 63 123.007 C 62.725 122.910, 68.323 121.568, 75.440 120.025 C 85.179 117.914, 88.807 117.487, 90.108 118.300 C 91.387 119.098, 92.250 119.038, 93.419 118.067 C 97.495 114.685, 93.247 109.720, 88.910 112.798 C 86.882 114.237, 61 120.341, 61 119.380 C 61 119.200, 66.850 115.620, 74 111.424 C 85.198 104.853, 88.001 103, 86.742 103 C 86.600 103, 80.080 106.789, 72.252 111.420 M 136 103.378 C 136 103.585, 136.787 104.373, 137.750 105.128 C 139.336 106.371, 139.371 106.336, 138.128 104.750 C 136.821 103.084, 136 102.555, 136 103.378 M 89.813 104.683 C 90.534 104.972, 91.397 104.936, 91.729 104.604 C 92.061 104.272, 91.471 104.036, 90.417 104.079 C 89.252 104.127, 89.015 104.364, 89.813 104.683 M 126.158 109 C 126.158 110.375, 126.385 110.938, 126.662 110.250 C 126.940 109.563, 126.940 108.438, 126.662 107.750 C 126.385 107.063, 126.158 107.625, 126.158 109 M 107.734 110.750 C 108.031 111.524, 110.155 112, 113.307 112 C 119.557 112, 118.455 110.341, 111.877 109.847 C 108.484 109.592, 107.382 109.833, 107.734 110.750 M 157.813 112.683 C 158.534 112.972, 159.397 112.936, 159.729 112.604 C 160.061 112.272, 159.471 112.036, 158.417 112.079 C 157.252 112.127, 157.015 112.364, 157.813 112.683 M 117.548 114.589 C 116.486 115.365, 114.605 116, 113.368 116 C 111.024 116, 109.314 117.647, 110.464 118.798 C 110.830 119.163, 112.487 118.683, 114.146 117.731 C 115.805 116.779, 117.774 116, 118.522 116 C 120.138 116, 121.364 114.343, 120.255 113.658 C 119.828 113.394, 118.609 113.812, 117.548 114.589 M 166 113.383 C 166 113.594, 167.111 113.979, 168.470 114.239 C 169.828 114.499, 170.702 114.326, 170.411 113.856 C 169.899 113.027, 166 112.610, 166 113.383 M 156.750 114.662 C 157.438 114.940, 158.563 114.940, 159.250 114.662 C 159.938 114.385, 159.375 114.158, 158 114.158 C 156.625 114.158, 156.063 114.385, 156.750 114.662 M 150.733 116.124 C 151.412 116.808, 152.219 117.115, 152.526 116.807 C 152.834 116.499, 152.279 115.940, 151.293 115.564 C 149.868 115.022, 149.753 115.136, 150.733 116.124 M 154.297 115.586 C 154.735 116.048, 158.110 118.121, 161.797 120.193 C 165.483 122.264, 168.115 123.968, 167.644 123.979 C 165.763 124.025, 154.686 120.821, 152.927 119.722 C 151.505 118.834, 150.769 118.831, 149.892 119.708 C 148.015 121.585, 149.660 124.302, 152.276 123.646 C 155.245 122.900, 168.662 126.384, 171.011 128.510 C 173.485 130.748, 176.420 130.040, 176.837 127.103 C 177.238 124.282, 175.351 122.780, 172.304 123.496 C 170.929 123.818, 168.214 122.895, 165.050 121.029 C 158.449 117.137, 153.293 114.528, 154.297 115.586 M 118.890 120.250 C 117.715 122.488, 117.720 122.490, 119.854 120.595 C 122.238 118.479, 122.456 118, 121.035 118 C 120.505 118, 119.539 119.013, 118.890 120.250 M 122.771 122.525 C 121.820 124.436, 121.399 126, 121.836 126 C 122.272 126, 123.381 124.425, 124.299 122.500 C 125.217 120.575, 125.637 119.011, 125.234 119.025 C 124.830 119.038, 123.722 120.613, 122.771 122.525 M 162.762 127.707 C 164.006 127.946, 165.806 127.937, 166.762 127.687 C 167.718 127.437, 166.700 127.241, 164.500 127.252 C 162.300 127.263, 161.518 127.468, 162.762 127.707 M 151 128.799 C 151 129.239, 152.575 129.415, 154.500 129.190 C 156.425 128.965, 158 128.605, 158 128.391 C 158 128.176, 156.425 128, 154.500 128 C 152.575 128, 151 128.360, 151 128.799 M 90.539 143.991 C 86.465 155.632, 85.165 158.290, 83.054 159.299 C 78.709 161.374, 79.468 168, 84.051 168 C 86.562 168, 89.249 165.061, 88.691 162.926 C 88.340 161.583, 91.017 159.175, 99.670 153.051 C 105.963 148.596, 111.444 145.156, 111.849 145.407 C 112.254 145.657, 112.648 145.023, 112.725 143.998 C 112.848 142.362, 112.660 142.305, 111.183 143.533 C 107.291 146.768, 91.471 157.762, 91.146 157.457 C 90.368 156.728, 104.218 140.066, 106.099 139.469 C 109.243 138.471, 108.336 133.500, 105.010 133.500 C 103.136 133.500, 102.393 134.135, 102.010 136.065 C 101.573 138.262, 87.995 157.328, 87.336 156.669 C 87.207 156.540, 89.104 150.825, 91.551 143.968 C 93.998 137.112, 95.881 131.142, 95.734 130.703 C 95.588 130.264, 93.250 136.244, 90.539 143.991 M 148.813 131.683 C 149.534 131.972, 150.397 131.936, 150.729 131.604 C 151.061 131.272, 150.471 131.036, 149.417 131.079 C 148.252 131.127, 148.015 131.364, 148.813 131.683 M 140.913 134.605 C 139.767 135.986, 140.007 136.578, 142.636 138.855 C 145.606 141.426, 153 151.106, 153 152.423 C 153 152.784, 149.645 150.597, 145.544 147.564 C 141.442 144.532, 137.816 142.489, 137.485 143.025 C 137.153 143.561, 137.401 144, 138.035 144 C 138.669 144, 142.633 146.511, 146.844 149.579 C 152.293 153.550, 154.647 155.928, 155.010 157.829 C 155.427 160.015, 156.063 160.500, 158.510 160.500 C 161.028 160.500, 161.550 160.066, 161.816 157.750 C 162.060 155.635, 161.597 154.797, 159.811 154.118 C 158.004 153.431, 156.861 151.306, 154.657 144.539 C 153.099 139.756, 151.640 136.027, 151.414 136.252 C 151.189 136.478, 152.102 139.888, 153.443 143.831 C 154.784 147.774, 155.717 151, 155.518 151 C 154.736 151, 146 137.830, 146 136.652 C 146 135.316, 144.048 133, 142.922 133 C 142.550 133, 141.646 133.722, 140.913 134.605 M 124.347 140.508 C 122.745 141.697, 122.675 142.165, 123.823 144.042 C 124.828 145.686, 124.971 148.643, 124.417 156.353 C 123.898 163.571, 123.460 165.778, 122.899 164 C 122.466 162.625, 120.910 157.568, 119.441 152.762 C 117.916 147.770, 116.346 144.286, 115.779 144.637 C 115.203 144.992, 115.166 145.512, 115.690 145.875 C 116.187 146.219, 118.091 151.422, 119.920 157.438 C 122.541 166.058, 123.008 168.757, 122.123 170.175 C 119.665 174.111, 122.101 177.693, 126.487 176.593 C 128.417 176.108, 129 175.317, 129 173.181 C 129 171.651, 128.545 169.945, 127.989 169.389 C 127.307 168.707, 127.633 166.472, 128.989 162.532 C 131.499 155.237, 131.508 152.703, 129 159.500 L 127.155 164.500 127.078 155.309 C 127.034 150.172, 127.441 145.845, 128 145.500 C 129.500 144.573, 129.204 140.292, 127.597 139.676 C 126.826 139.380, 125.363 139.754, 124.347 140.508 M 168.813 139.683 C 169.534 139.972, 170.397 139.936, 170.729 139.604 C 171.061 139.272, 170.471 139.036, 169.417 139.079 C 168.252 139.127, 168.015 139.364, 168.813 139.683 M 118.079 141.583 C 118.127 142.748, 118.364 142.985, 118.683 142.188 C 118.972 141.466, 118.936 140.603, 118.604 140.271 C 118.272 139.939, 118.036 140.529, 118.079 141.583 M 132.978 146.567 C 132.330 148.529, 132.028 150.361, 132.305 150.639 C 132.583 150.916, 133.114 149.757, 133.486 148.063 C 133.858 146.369, 134.571 145.235, 135.070 145.543 C 135.569 145.852, 135.709 145.406, 135.382 144.552 C 134.539 142.356, 134.302 142.554, 132.978 146.567 M 168.813 146.683 C 169.534 146.972, 170.397 146.936, 170.729 146.604 C 171.061 146.272, 170.471 146.036, 169.417 146.079 C 168.252 146.127, 168.015 146.364, 168.813 146.683 M 66.813 152.683 C 67.534 152.972, 68.397 152.936, 68.729 152.604 C 69.061 152.272, 68.471 152.036, 67.417 152.079 C 66.252 152.127, 66.015 152.364, 66.813 152.683 M 147.079 168.583 C 147.127 169.748, 147.364 169.985, 147.683 169.188 C 147.972 168.466, 147.936 167.603, 147.604 167.271 C 147.272 166.939, 147.036 167.529, 147.079 168.583 M 100.079 171.583 C 100.127 172.748, 100.364 172.985, 100.683 172.188 C 100.972 171.466, 100.936 170.603, 100.604 170.271 C 100.272 169.939, 100.036 170.529, 100.079 171.583 M 101.797 181.680 C 97.880 182.711, 98.777 188.160, 103.090 189.529 C 105.943 190.434, 105.395 192.119, 102.355 191.788 C 98.764 191.397, 98.184 193.739, 101.554 195.020 C 107.392 197.240, 111.751 190.164, 106.232 187.424 C 102.963 185.800, 102.135 184.615, 104.713 185.249 C 108.145 186.093, 109.556 183.575, 106.445 182.157 C 105.049 181.521, 103.815 181.052, 103.703 181.116 C 103.591 181.180, 102.734 181.434, 101.797 181.680 M 47 188.500 C 47 194.333, 47.205 195, 49 195 C 50.333 195, 51 194.333, 51 193 C 51 191.900, 51.420 191, 51.933 191 C 52.446 191, 53.151 191.900, 53.500 193 C 53.861 194.139, 55.013 195, 56.174 195 C 57.710 195, 58.046 194.567, 57.533 193.250 C 56.583 190.808, 56.583 190.818, 57.448 187.737 C 58.557 183.785, 56.668 182, 51.378 182 L 47 182 47 188.500 M 60 188.445 L 60 195 64.378 195 C 70.158 195, 71.300 193.518, 70.271 187.350 L 69.463 182.500 64.732 182.195 L 60 181.890 60 188.445 M 74.073 184.635 C 71.675 187.683, 71.619 188.071, 73.110 191.343 C 74.435 194.250, 78.469 196.303, 81.172 195.445 C 84.224 194.477, 82.994 191.579, 79.512 191.536 C 77.463 191.511, 76.427 190.940, 76.186 189.702 C 75.700 187.213, 77.890 184.869, 80.378 185.213 C 81.702 185.396, 82.576 184.868, 82.799 183.750 C 83.403 180.712, 76.617 181.400, 74.073 184.635 M 86 188.500 L 86 195 89.845 195 C 94.319 195, 97.250 192.427, 97.250 188.500 C 97.250 184.573, 94.319 182, 89.845 182 L 86 182 86 188.500 M 112.773 188.250 C 110.723 193.586, 110.595 194.553, 111.898 194.864 C 112.737 195.064, 113.591 194.727, 113.795 194.114 C 114.286 192.643, 117.538 192.695, 119.968 194.212 C 123.116 196.178, 123.359 194.504, 120.860 188.061 C 117.740 180.014, 115.922 180.056, 112.773 188.250 M 125 188.500 C 125 194.333, 125.205 195, 127 195 C 128.795 195, 129 194.333, 129 188.500 C 129 182.667, 128.795 182, 127 182 C 125.205 182, 125 182.667, 125 188.500 M 137.328 188.500 C 137.333 192.350, 137.513 193.802, 137.730 191.728 C 137.946 189.653, 137.943 186.503, 137.722 184.728 C 137.501 182.952, 137.324 184.650, 137.328 188.500 M 147.328 188.500 C 147.333 192.350, 147.513 193.802, 147.730 191.728 C 147.946 189.653, 147.943 186.503, 147.722 184.728 C 147.501 182.952, 147.324 184.650, 147.328 188.500 M 160.079 183.583 C 160.127 184.748, 160.364 184.985, 160.683 184.188 C 160.972 183.466, 160.936 182.603, 160.604 182.271 C 160.272 181.939, 160.036 182.529, 160.079 183.583 M 51 186.500 C 51 187.325, 51.675 188, 52.500 188 C 53.325 188, 54 187.325, 54 186.500 C 54 185.675, 53.325 185, 52.500 185 C 51.675 185, 51 185.675, 51 186.500 M 64 186 C 64 186.550, 64.675 187, 65.500 187 C 66.325 187, 67 186.550, 67 186 C 67 185.450, 66.325 185, 65.500 185 C 64.675 185, 64 185.450, 64 186 M 89 188.427 C 89 192.315, 90.774 193.182, 93.070 190.416 C 94.611 188.559, 93.285 185.697, 90.643 185.177 C 89.365 184.925, 89 185.648, 89 188.427 M 116 188.441 C 116 189.298, 116.450 190, 117 190 C 117.550 190, 118 189.577, 118 189.059 C 118 188.541, 117.550 187.840, 117 187.500 C 116.450 187.160, 116 187.584, 116 188.441 M 162.079 190.583 C 162.127 191.748, 162.364 191.985, 162.683 191.188 C 162.972 190.466, 162.936 189.603, 162.604 189.271 C 162.272 188.939, 162.036 189.529, 162.079 190.583 M 64 191.583 C 64 193.349, 66.153 193.042, 66.771 191.188 C 66.989 190.534, 66.454 190, 65.583 190 C 64.713 190, 64 190.713, 64 191.583 M 177.079 192.583 C 177.127 193.748, 177.364 193.985, 177.683 193.188 C 177.972 192.466, 177.936 191.603, 177.604 191.271 C 177.272 190.939, 177.036 191.529, 177.079 192.583" stroke="none" fill="#aeaeae" fill-rule="evenodd"/><path d="M -0 112.504 L -0 225.009 112.750 224.754 L 225.500 224.500 225.754 112.250 L 226.009 0 113.004 0 L 0 0 -0 112.504 M 0.483 113 C 0.483 174.875, 0.603 200.188, 0.750 169.250 C 0.897 138.313, 0.897 87.688, 0.750 56.750 C 0.603 25.813, 0.483 51.125, 0.483 113 M 127.956 19.553 C 125.907 22.022, 126.373 27.074, 128.833 29.066 C 130.889 30.731, 131 31.624, 131 46.532 L 131 62.243 120.075 47.916 C 111.410 36.555, 109.341 33.232, 110.075 31.861 C 112.319 27.667, 109.132 23, 104.023 23 C 97.997 23, 96.100 31.690, 101.517 34.479 C 103.382 35.439, 103.500 36.559, 103.500 53.251 C 103.500 63.014, 103.449 71.001, 103.387 71.001 C 103.324 71, 99.162 65.632, 94.137 59.071 C 86.732 49.404, 85 46.494, 85 43.726 C 85 37.774, 78.426 34.662, 74.655 38.829 C 71.210 42.635, 73.790 49, 78.778 49 C 80.308 49, 83.525 52.406, 90.346 61.250 C 95.543 67.987, 99.685 73.618, 99.552 73.762 C 99.419 73.906, 94.853 73.101, 89.405 71.974 C 83.957 70.847, 76.912 69.444, 73.750 68.855 C 70.587 68.267, 68 67.364, 68 66.848 C 68 65.326, 63.225 61, 61.545 61 C 59.223 61, 56 64.687, 56 67.345 C 56 70.576, 59.314 73.364, 62.443 72.766 C 64.639 72.346, 66.366 73.926, 76.145 85.301 C 86.253 97.058, 87.048 98.260, 84.366 97.723 C 82.733 97.397, 76.165 96.347, 69.770 95.391 C 60.348 93.983, 58.054 93.315, 57.677 91.872 C 56.992 89.253, 52.488 88.450, 49.493 90.413 C 43.150 94.569, 50.301 102.937, 56.764 98.921 C 58.052 98.121, 62.140 98.444, 72.598 100.171 L 86.695 102.500 72.334 110.861 C 60.546 117.725, 57.709 119.003, 56.500 118 C 54.341 116.209, 50.523 117.557, 49.137 120.599 C 48.147 122.771, 48.210 123.672, 49.489 125.623 C 51.416 128.565, 56.282 128.857, 58.193 126.146 C 59.463 124.345, 59.954 124.343, 75.500 126.087 C 84.300 127.074, 91.695 127.908, 91.934 127.941 C 92.173 127.973, 87.621 131.347, 81.818 135.437 C 73.615 141.220, 70.538 142.853, 67.985 142.781 C 62.585 142.627, 60.080 147.952, 63.918 151.425 C 66.752 153.990, 70.220 153.061, 72.137 149.223 C 73.753 145.988, 75.169 144.796, 88.074 135.815 L 94.648 131.240 90.034 144.212 C 86.945 152.900, 84.773 157.526, 83.460 158.217 C 78.547 160.803, 77.655 165.072, 81.500 167.592 C 83.816 169.109, 84.184 169.109, 86.500 167.592 C 88.014 166.600, 89 165.010, 89 163.560 C 89 161.651, 91.277 159.548, 100.250 153.170 C 106.438 148.773, 111.616 145.289, 111.759 145.429 C 111.901 145.570, 110.381 150.434, 108.381 156.240 C 105.559 164.432, 104.213 167.037, 102.372 167.876 C 98.163 169.794, 100.172 177, 104.916 177 C 108.441 177, 111.325 171.725, 109.046 169.446 C 108.125 168.525, 114.771 146.983, 115.967 147.014 C 117.121 147.043, 122.828 168.527, 121.927 169.450 C 120.197 171.223, 120.896 175.874, 123.067 177.036 C 127.400 179.355, 132.242 173.106, 128.511 170.009 C 127.692 169.329, 127.240 168.421, 127.506 167.991 C 127.772 167.560, 129.519 162.324, 131.387 156.354 L 134.785 145.500 137.765 155 C 139.799 161.482, 140.433 164.893, 139.761 165.737 C 138.319 167.549, 139.696 171.769, 141.965 172.489 C 146.900 174.055, 150.250 167.690, 146.042 164.742 C 144.880 163.928, 143.029 159.945, 141.485 154.935 C 140.055 150.296, 138.688 145.905, 138.447 145.179 C 138.206 144.452, 141.481 146.312, 145.725 149.311 C 151.467 153.369, 153.644 155.547, 154.233 157.819 C 155.263 161.794, 158.528 162.916, 161.222 160.222 C 163.599 157.845, 162.954 154.732, 159.794 153.321 C 158.211 152.615, 156.762 149.764, 154.388 142.682 C 151.312 133.507, 151.253 133.065, 153.255 134.136 C 158.312 136.843, 164.741 142.136, 165.803 144.468 C 167.221 147.579, 171.432 147.930, 172.965 145.066 C 174.304 142.564, 174.288 142.431, 172.429 140.571 C 171.564 139.707, 169.786 139, 168.476 139 C 167.167 139, 163.037 136.863, 159.298 134.250 L 152.500 129.500 161.336 128.764 C 168.531 128.165, 170.447 128.304, 171.657 129.514 C 172.474 130.331, 173.529 131, 174 131 C 175.317 131, 178 128.016, 178 126.551 C 178 124.471, 175.203 122.714, 172.866 123.325 C 171.424 123.702, 168.314 122.477, 163.376 119.586 L 156.031 115.286 162.580 114.675 C 166.830 114.278, 169.779 114.470, 170.983 115.221 C 173.355 116.702, 176.234 114.590, 175.798 111.690 C 175.327 108.552, 172.471 107.265, 170.309 109.216 C 169.267 110.157, 165.744 111.142, 162 111.541 L 155.500 112.233 160.841 106.743 C 163.779 103.723, 166.866 101.308, 167.703 101.376 C 169.700 101.539, 171.485 98.707, 170.691 96.636 C 169.922 94.633, 167.206 94.516, 165.079 96.393 C 164.210 97.159, 160.136 98.115, 156.025 98.517 C 148.821 99.222, 148.601 99.180, 149.977 97.374 C 153.395 92.888, 155.650 90.730, 157.776 89.909 C 160.831 88.729, 161.642 86.213, 159.618 84.189 C 157.667 82.238, 154.735 83.517, 154.134 86.581 C 153.932 87.608, 152.132 90.448, 150.134 92.893 L 146.500 97.338 146 90.419 C 145.677 85.943, 145.926 82.791, 146.708 81.490 C 148.291 78.855, 146.910 76.735, 143.887 77.163 C 142.207 77.400, 141.491 78.153, 141.470 79.704 C 141.429 82.781, 134.873 91.401, 133.827 89.754 C 132.635 87.877, 132.839 81.561, 134.133 80.267 C 135.753 78.647, 134.431 76, 132 76 C 129.499 76, 128.339 78.499, 129.943 80.432 C 130.608 81.233, 130.979 84.108, 130.805 87.115 L 130.500 92.393 126.654 89.008 C 124.538 87.147, 122.412 84.583, 121.928 83.312 C 121.445 82.040, 120.349 81, 119.493 81 C 117.533 81, 116.461 83.626, 117.753 85.263 C 118.290 85.943, 118.984 89.105, 119.296 92.289 L 119.864 98.078 116.598 95.289 C 114.803 93.755, 112.921 91.600, 112.417 90.500 C 111.912 89.400, 110.825 88.500, 110 88.500 C 108.130 88.500, 107.321 92.983, 109.180 93.042 C 109.906 93.065, 112.300 94.695, 114.500 96.665 L 118.500 100.246 111.227 99.755 C 107.228 99.485, 103.701 99.674, 103.391 100.176 C 102.670 101.343, 104.954 104.147, 106.066 103.459 C 106.527 103.174, 109.054 104.581, 111.681 106.586 L 116.456 110.231 110.478 109.866 C 105.668 109.571, 104.500 109.793, 104.500 111 C 104.500 112.207, 105.672 112.429, 110.500 112.136 L 116.500 111.773 114.595 113.886 C 113.547 115.049, 112.111 116, 111.404 116 C 109.522 116, 108.599 117.999, 109.887 119.287 C 110.704 120.104, 111.319 120.081, 112.200 119.200 C 113.710 117.690, 120.388 117.563, 119.462 119.062 C 119.101 119.646, 117.676 120.553, 116.294 121.078 C 114.173 121.885, 113.981 122.272, 115.060 123.572 C 116.183 124.926, 116.612 124.774, 118.632 122.305 L 120.928 119.500 120.964 123.250 C 121.010 128.010, 122.534 128.051, 124.500 123.346 C 126.078 119.568, 125.671 117.440, 123.865 120.029 C 123.101 121.124, 122.995 120.784, 123.451 118.699 C 124.037 116.020, 123.920 115.915, 120.782 116.309 C 118.977 116.535, 118.287 116.527, 119.250 116.291 C 121.268 115.795, 121.597 113.407, 119.750 112.662 C 118.750 112.259, 118.750 112.142, 119.750 112.079 C 122.149 111.927, 120.974 110.016, 117.622 108.615 C 114.054 107.124, 111.462 104.510, 114.698 105.667 C 115.689 106.021, 116.991 106.687, 117.592 107.147 C 118.857 108.115, 120 107.255, 120 105.333 C 120 104.600, 118.987 103.968, 117.750 103.930 C 116.513 103.891, 114.600 103.433, 113.500 102.913 C 112.100 102.250, 113.224 102.124, 117.250 102.492 C 123.277 103.043, 123.905 102.560, 121.940 98.888 C 121.357 97.799, 121.022 95.466, 121.196 93.704 L 121.511 90.500 122.876 94.500 C 124.561 99.437, 125.661 100.739, 127.008 99.392 C 127.685 98.715, 127.003 96.434, 124.929 92.442 L 121.842 86.500 126.946 91.847 C 132.037 97.180, 134.970 98.064, 135.027 94.281 C 135.042 93.302, 136.359 90.925, 137.954 89.001 L 140.855 85.502 139.721 89.751 C 139.097 92.088, 138.230 94, 137.793 94 C 136.373 94, 136.958 97.770, 138.468 98.349 C 140.270 99.041, 140.333 98.921, 142.084 91.500 L 143.500 85.500 144.062 91.500 C 144.383 94.937, 144.181 98.237, 143.587 99.225 C 141.751 102.279, 144.286 103.567, 148.343 101.642 C 152.501 99.668, 161.801 99.297, 158.500 101.236 C 157.400 101.882, 154.475 102.928, 152 103.561 C 148.739 104.394, 147.417 105.266, 147.197 106.728 C 146.824 109.216, 149.459 110.398, 151.292 108.565 C 152.035 107.823, 154.997 106.022, 157.875 104.563 L 163.108 101.911 158.424 106.874 C 155.848 109.604, 153.196 111.629, 152.530 111.373 C 151.865 111.118, 150.743 111.604, 150.038 112.454 C 148.402 114.426, 150.490 117.367, 153.050 116.697 C 153.979 116.454, 157.161 117.812, 160.120 119.714 C 163.079 121.616, 164.744 122.935, 163.821 122.645 C 162.898 122.355, 160.423 121.796, 158.321 121.402 C 156.219 121.009, 154.038 120.058, 153.474 119.289 C 152.862 118.456, 151.730 118.166, 150.671 118.573 C 148.214 119.515, 148.873 123.480, 151.500 123.563 C 152.600 123.598, 156.650 124.263, 160.500 125.041 L 167.500 126.456 160 127.069 C 155.605 127.428, 151.830 127.268, 150.882 126.683 C 149.993 126.134, 148.530 125.966, 147.632 126.311 C 145.642 127.075, 145.468 130.858, 147.390 131.596 C 148.154 131.889, 149.687 134.688, 150.797 137.815 C 154.483 148.203, 154.406 148.812, 150.143 143 C 147.925 139.975, 145.972 136.600, 145.805 135.500 C 145.344 132.473, 140.607 132.744, 140.171 135.823 C 139.948 137.398, 140.430 138.314, 141.671 138.667 C 143.347 139.144, 152.712 151, 151.413 151 C 149.691 151, 139.419 142.568, 138.977 140.791 C 137.555 135.074, 131.337 136.655, 132.426 142.457 C 132.903 144.999, 129.007 160.253, 127.473 161.847 C 126.612 162.743, 128.287 146.223, 129.261 144.220 C 130.665 141.333, 128.270 138.462, 125.255 139.419 C 123.414 140.003, 123.310 140.830, 123.630 152.272 L 123.972 164.500 120.643 154.500 C 118.775 148.891, 117.684 144.083, 118.157 143.550 C 119.580 141.947, 119.095 139.121, 117.224 138.120 C 114.960 136.908, 112 138.467, 112 140.870 C 112 141.968, 108.175 145.380, 101.912 149.867 C 96.363 153.842, 92.183 156.511, 92.621 155.797 C 95.473 151.160, 104.504 140.433, 106.318 139.529 C 108.942 138.220, 109.167 135.139, 106.750 133.614 C 104.457 132.168, 101.837 133.777, 100.924 137.192 C 100.383 139.215, 93.458 149.082, 88.796 154.472 C 88.334 155.007, 89.878 149.947, 92.228 143.228 C 94.577 136.510, 97.007 131.009, 97.628 131.006 C 99.543 130.996, 101.198 128.199, 100.531 126.099 C 99.649 123.319, 96.267 122.449, 94.070 124.437 C 92.435 125.916, 91.189 125.925, 79.392 124.536 C 72.301 123.701, 66.050 122.969, 65.500 122.908 C 64.950 122.847, 69.450 121.746, 75.500 120.460 C 81.911 119.098, 88.025 118.353, 90.155 118.674 C 93.174 119.129, 94.006 118.858, 94.940 117.113 C 97.263 112.772, 92.217 108.925, 88.750 112.393 C 87.568 113.575, 63.997 119.269, 63.238 118.556 C 63.095 118.421, 68.270 115.205, 74.738 111.410 C 82.989 106.569, 87.509 104.508, 89.879 104.505 C 96.153 104.496, 96.812 98.171, 90.660 97 C 88.908 96.666, 85.483 93.505, 80.371 87.500 C 76.156 82.550, 71.761 77.411, 70.604 76.079 C 68.686 73.873, 68.987 73.942, 74 76.854 C 77.025 78.611, 82.065 81.501, 85.200 83.275 C 88.335 85.049, 91.376 87.541, 91.957 88.813 C 93.449 92.076, 99.342 91.613, 99.827 88.195 C 100.251 85.199, 98.367 83, 95.374 83 C 94.065 83, 87.933 80.051, 81.747 76.448 C 75.561 72.844, 71.625 70.146, 73 70.452 C 80.184 72.051, 99.036 76, 99.483 76 C 99.767 76, 100 76.685, 100 77.521 C 100 78.358, 101.123 79.555, 102.496 80.180 C 107.287 82.363, 111.434 75.537, 107 72.768 C 105.127 71.598, 105.004 70.471, 105.061 55.009 L 105.122 38.500 109.100 49.500 C 111.287 55.550, 113.232 62.865, 113.421 65.756 C 113.931 73.542, 117.494 76.427, 121.345 72.171 C 123.531 69.755, 123.433 68.433, 120.875 65.875 C 119.261 64.261, 110 40.684, 110 38.188 C 110 37.939, 114.257 43.301, 119.460 50.104 C 126.646 59.502, 128.788 62.996, 128.375 64.644 C 127.584 67.792, 129.648 71, 132.464 71 C 137.075 71, 139.750 65.697, 136.500 63 C 135.284 61.990, 135 58.796, 135 46.100 C 135 31.682, 135.158 30.309, 137 28.732 C 139.408 26.670, 139.637 21.780, 137.429 19.571 C 135.409 17.552, 129.626 17.541, 127.956 19.553 M 128 104 C 125.122 106.878, 125.411 111.392, 128.635 113.927 C 132.095 116.649, 134.547 116.544, 137.545 113.545 C 140.544 110.547, 140.649 108.095, 137.927 104.635 C 135.392 101.411, 130.878 101.122, 128 104 M 47 188.500 C 47 195.247, 47.194 196, 48.934 196 C 50.289 196, 50.975 195.178, 51.227 193.250 L 51.588 190.500 52.913 193.158 C 54.160 195.662, 54.664 195.821, 61.573 195.892 C 68.022 195.958, 69.094 195.704, 70.434 193.790 L 71.959 191.613 74.294 193.807 C 77.975 197.265, 84.838 196.347, 83.396 192.589 C 82.999 191.556, 82.020 191.023, 81.004 191.289 C 79.093 191.788, 76 190.387, 76 189.022 C 76 187.271, 79.008 185.189, 80.845 185.670 C 83.109 186.262, 84.724 183.077, 82.784 181.845 C 78.829 179.336, 73.322 182.498, 72.022 188.024 L 71.205 191.500 71.102 187.821 C 70.962 182.776, 68.758 180.824, 63.627 181.199 L 59.500 181.500 59 188 C 58.706 191.825, 58.213 193.803, 57.804 192.808 C 57.420 191.877, 57.378 189.447, 57.709 187.408 C 58.447 182.859, 56.445 181, 50.809 181 L 47 181 47 188.500 M 85 188.370 L 85 196 89.045 196 C 92.007 196, 93.748 195.343, 95.545 193.545 C 100.582 188.509, 97.562 182.156, 89.711 181.271 L 85 180.740 85 188.370 M 100.200 182.200 C 97.942 184.458, 98.817 187.854, 102.093 189.548 C 103.794 190.428, 104.958 191.376, 104.679 191.655 C 104.400 191.934, 103.280 191.685, 102.191 191.102 C 100.676 190.291, 99.915 190.397, 98.957 191.552 C 97.928 192.791, 98.044 193.321, 99.602 194.499 C 102.577 196.752, 106.723 196.352, 108.500 193.641 C 110.476 190.625, 109.715 188.732, 105.704 186.682 C 102.816 185.206, 102.761 185.100, 105.141 185.603 C 108.211 186.253, 109.719 184.572, 107.964 182.456 C 106.502 180.695, 101.859 180.541, 100.200 182.200 M 114.310 182.750 C 113.966 183.713, 112.855 186.654, 111.842 189.287 C 109.522 195.317, 109.538 196, 112 196 C 113.100 196, 114 195.550, 114 195 C 114 194.450, 115.098 194, 116.441 194 C 117.784 194, 119.160 194.450, 119.500 195 C 120.413 196.477, 124.307 196.248, 123.743 194.750 C 123.484 194.063, 122.251 190.688, 121.002 187.250 C 119.305 182.577, 118.253 181, 116.835 181 C 115.791 181, 114.655 181.787, 114.310 182.750 M 125 188.500 C 125 195.333, 125.178 196, 127 196 C 128.822 196, 129 195.333, 129 188.500 C 129 181.667, 128.822 181, 127 181 C 125.178 181, 125 181.667, 125 188.500 M 137 188.500 C 137 195.850, 137.085 196.127, 139.250 195.820 C 141.339 195.523, 141.500 194.998, 141.500 188.500 C 141.500 182.002, 141.339 181.477, 139.250 181.180 C 137.085 180.873, 137 181.150, 137 188.500 M 143.941 182 C 143.909 182.550, 143.853 185.813, 143.818 189.250 C 143.760 194.878, 143.965 195.532, 145.877 195.820 C 147.882 196.121, 148 195.719, 148 188.570 C 148 181.667, 147.824 181, 146 181 C 144.900 181, 143.974 181.450, 143.941 182 M 149 183 C 149 184.333, 149.667 185, 151 185 C 152.758 185, 153 185.667, 153 190.500 C 153 195.333, 153.242 196, 155 196 C 156.758 196, 157 195.333, 157 190.500 C 157 185.667, 157.242 185, 159 185 C 160.333 185, 161 184.333, 161 183 C 161 181.222, 160.333 181, 155 181 C 149.667 181, 149 181.222, 149 183 M 162.625 184.125 C 162.281 185.844, 162 189.219, 162 191.625 C 162 195.333, 162.305 196, 164 196 C 165.496 196, 166.020 195.307, 166.079 193.250 L 166.158 190.500 167.162 193.250 C 168.235 196.187, 172 197.160, 172 194.500 C 172 193.675, 172.450 193, 173 193 C 173.550 193, 174 193.675, 174 194.500 C 174 195.333, 174.889 196, 176 196 C 177.646 196, 177.998 195.337, 177.989 192.250 C 177.983 190.188, 177.699 186.813, 177.358 184.750 C 176.843 181.633, 176.334 181, 174.344 181 C 172.484 181, 171.816 181.669, 171.350 184 C 171.020 185.650, 170.412 187, 170 187 C 169.588 187, 168.980 185.650, 168.650 184 C 168.183 181.667, 167.517 181, 165.650 181 C 163.762 181, 163.117 181.667, 162.625 184.125 M 51 186 C 51 186.550, 51.675 187, 52.500 187 C 53.325 187, 54 186.550, 54 186 C 54 185.450, 53.325 185, 52.500 185 C 51.675 185, 51 185.450, 51 186 M 64 186 C 64 186.550, 64.450 187, 65 187 C 65.550 187, 66 186.550, 66 186 C 66 185.450, 65.550 185, 65 185 C 64.450 185, 64 185.450, 64 186 M 90 188.969 C 90 191.197, 90.374 191.794, 91.500 191.362 C 92.325 191.045, 93 189.709, 93 188.393 C 93 186.933, 92.415 186, 91.500 186 C 90.504 186, 90 186.997, 90 188.969 M 64 191 C 64 191.550, 64.675 192, 65.500 192 C 66.325 192, 67 191.550, 67 191 C 67 190.450, 66.325 190, 65.500 190 C 64.675 190, 64 190.450, 64 191" stroke="none" fill="#ffffff" fill-rule="evenodd"/><path d="M 129 20 C 127.900 21.100, 127 22.900, 127 24 C 127 25.100, 127.900 26.900, 129 28 C 130.836 29.836, 131 31.333, 131 46.300 C 131 56.682, 130.606 62.994, 129.915 63.685 C 129.319 64.281, 128.981 65.834, 129.165 67.135 C 129.444 69.107, 130.081 69.500, 133 69.500 C 135.919 69.500, 136.556 69.107, 136.835 67.135 C 137.019 65.834, 136.681 64.281, 136.085 63.685 C 135.394 62.994, 135 56.682, 135 46.300 C 135 31.333, 135.164 29.836, 137 28 C 138.100 26.900, 139 25.100, 139 24 C 139 21.424, 135.576 18, 133 18 C 131.900 18, 130.100 18.900, 129 20 M 75.200 39.200 C 73.629 40.771, 73.660 45.475, 75.250 46.782 C 75.938 47.346, 77.589 47.964, 78.919 48.154 C 81.849 48.573, 101.268 73.138, 100.419 75.351 C 99.813 76.929, 102.475 80, 104.449 80 C 106.316 80, 108.223 77.395, 107.833 75.379 C 107.650 74.435, 106.270 72.950, 104.767 72.081 C 103.264 71.211, 97.977 65.234, 93.017 58.799 C 85.786 49.415, 84 46.434, 84 43.749 C 84 39.727, 82.498 38, 79 38 C 77.570 38, 75.860 38.540, 75.200 39.200 M 130.609 76.823 C 130.330 77.276, 130.545 80.763, 131.089 84.573 C 131.632 88.383, 131.833 92.485, 131.535 93.689 C 131.016 95.782, 132.418 97.862, 133.271 96.266 C 133.497 95.845, 133.375 92.350, 133.001 88.500 C 132.610 84.463, 132.725 80.976, 133.273 80.263 C 133.796 79.582, 133.963 78.345, 133.643 77.513 C 133.013 75.869, 131.422 75.508, 130.609 76.823 M 155.701 84.632 C 155.316 85.018, 155 86.068, 155 86.965 C 155 87.862, 152.525 91.193, 149.500 94.366 C 143.806 100.339, 142.936 102, 145.500 102 C 146.325 102, 147 101.500, 147 100.889 C 147 99.012, 155.188 89.879, 157.740 88.909 C 159.257 88.332, 160.022 87.354, 159.811 86.259 C 159.461 84.441, 156.905 83.429, 155.701 84.632 M 108.500 90 C 107.690 91.311, 108.772 93, 110.422 93 C 111.139 93, 113.831 95.250, 116.403 98 C 118.976 100.750, 121.287 103, 121.540 103 C 123.090 103, 121.350 100.472, 117 96.403 C 114.250 93.831, 112 91.113, 112 90.363 C 112 88.787, 109.415 88.519, 108.500 90 M 49.200 91.200 C 47.517 92.883, 47.706 96.564, 49.571 98.429 C 51.534 100.391, 52.971 100.409, 55.687 98.507 C 57.593 97.171, 59.282 97.240, 71.659 99.160 C 79.272 100.341, 86.250 101.949, 87.168 102.734 C 89.428 104.668, 93.389 103.976, 93.849 101.566 C 94.363 98.869, 91.393 96.874, 88.650 98.076 C 87.159 98.729, 82.217 98.284, 72.534 96.627 C 60.974 94.647, 58.326 93.871, 57.162 92.118 C 55.604 89.770, 51.144 89.256, 49.200 91.200 M 128.571 104.571 C 125.128 108.014, 127.831 115, 132.606 115 C 135.900 115, 139 112.139, 139 109.098 C 139 103.881, 132.210 100.933, 128.571 104.571 M 105.639 109.694 C 104.513 110.820, 104.954 112, 106.500 112 C 107.325 112, 108 111.577, 108 111.059 C 108 109.798, 106.438 108.895, 105.639 109.694 M 169.911 110.517 C 168.840 111.589, 165.765 112.130, 159.447 112.360 C 152.575 112.609, 150.500 113.011, 150.500 114.092 C 150.500 115.585, 150.553 115.585, 162.345 114.014 C 167.279 113.356, 169.717 113.431, 171.079 114.281 C 172.603 115.233, 173.292 115.137, 174.648 113.781 C 176.037 112.392, 176.105 111.831, 175.042 110.550 C 173.418 108.594, 171.845 108.584, 169.911 110.517 M 117.500 111 C 117.840 111.550, 118.541 112, 119.059 112 C 119.577 112, 120 111.550, 120 111 C 120 110.450, 119.298 110, 118.441 110 C 117.584 110, 117.160 110.450, 117.500 111 M 116.690 121.436 C 115.619 122.248, 115.292 123.063, 115.890 123.432 C 116.445 123.775, 117.388 123.143, 117.985 122.028 C 119.253 119.658, 119.117 119.596, 116.690 121.436 M 93.778 126.455 C 91.966 129.913, 71.053 144.152, 68.825 143.444 C 64.563 142.092, 61.061 147.661, 64.200 150.800 C 66.856 153.456, 72 151.527, 72 147.875 C 72 145.960, 93.348 130.646, 95.947 130.697 C 99.623 130.769, 101.624 125.837, 98.418 124.607 C 95.815 123.608, 95.125 123.883, 93.778 126.455 M 146.987 127.516 C 145.617 129.167, 146.489 131, 148.646 131 C 151.133 131, 165.121 141.187, 166.073 143.693 C 167.084 146.352, 171.436 146.911, 172.362 144.500 C 173.332 141.971, 171.921 140, 169.143 140.003 C 166.243 140.007, 151.051 130.245, 151.019 128.357 C 150.989 126.548, 148.263 125.979, 146.987 127.516 M 113.203 139.690 C 112.690 140.685, 112.468 142.052, 112.710 142.726 C 112.953 143.400, 111.429 149.191, 109.325 155.594 C 106.245 164.968, 105.049 167.407, 103.187 168.117 C 101.315 168.830, 100.933 169.620, 101.187 172.249 C 101.429 174.767, 102.020 175.574, 103.805 175.827 C 107.477 176.347, 109.213 174.221, 108.511 170.064 C 108.059 167.387, 108.826 163.796, 111.520 155.985 C 113.508 150.218, 115.816 144.974, 116.648 144.331 C 118.587 142.833, 118.016 138.619, 115.817 138.200 C 114.892 138.024, 113.715 138.694, 113.203 139.690 M 133.701 138.632 C 132.667 139.667, 132.849 143, 133.939 143 C 135.515 143, 140.352 160.145, 140.428 166 C 140.499 171.429, 140.539 171.500, 143.500 171.500 C 145.915 171.500, 146.567 171.027, 146.843 169.074 C 147.061 167.531, 146.453 166.076, 145.172 165.074 C 142.933 163.323, 137.885 147.927, 137.647 142.124 C 137.506 138.674, 135.465 136.868, 133.701 138.632 M 138 188.500 C 138 193.611, 138.321 195, 139.500 195 C 140.679 195, 141 193.611, 141 188.500 C 141 183.389, 140.679 182, 139.500 182 C 138.321 182, 138 183.389, 138 188.500 M 144 188.500 C 144 193.611, 144.321 195, 145.500 195 C 146.679 195, 147 193.611, 147 188.500 C 147 183.389, 146.679 182, 145.500 182 C 144.321 182, 144 183.389, 144 188.500 M 150 183.500 C 150 184.325, 150.675 185, 151.500 185 C 152.633 185, 153 186.222, 153 190 C 153 194.333, 153.267 195, 155 195 C 156.733 195, 157 194.333, 157 190 C 157 186.222, 157.367 185, 158.500 185 C 159.325 185, 160 184.325, 160 183.500 C 160 182.367, 158.778 182, 155 182 C 151.222 182, 150 182.367, 150 183.500 M 162.986 186.180 C 162.979 188.556, 162.689 191.558, 162.343 192.851 C 161.828 194.776, 162.055 195.136, 163.599 194.839 C 164.768 194.614, 165.701 193.340, 166.055 191.488 L 166.625 188.500 167.392 191.750 C 167.814 193.537, 168.797 195, 169.577 195 C 170.356 195, 171.634 193.537, 172.416 191.750 L 173.837 188.500 173.918 191.750 C 173.979 194.166, 174.456 195, 175.776 195 C 177.250 195, 177.498 194.275, 177.233 190.750 C 176.700 183.687, 176.095 182, 174.092 182 C 172.747 182, 172.038 182.982, 171.566 185.500 C 170.745 189.876, 169.566 189.968, 168.361 185.750 C 167.725 183.523, 166.736 182.399, 165.217 182.180 C 163.222 181.893, 162.999 182.294, 162.986 186.180" stroke="none" fill="#ec1d24" fill-rule="evenodd"/><path d="M 127.872 19.750 C 126.629 21.336, 126.664 21.371, 128.250 20.128 C 129.916 18.821, 130.445 18, 129.622 18 C 129.415 18, 128.627 18.788, 127.872 19.750 M 99.872 24.750 C 98.603 26.369, 98.650 26.390, 100.500 25.033 C 101.600 24.226, 102.688 23.439, 102.917 23.283 C 103.146 23.127, 102.863 23, 102.289 23 C 101.715 23, 100.627 23.788, 99.872 24.750 M 98.158 29 C 98.158 30.375, 98.385 30.938, 98.662 30.250 C 98.940 29.563, 98.940 28.438, 98.662 27.750 C 98.385 27.063, 98.158 27.625, 98.158 29 M 110.158 29 C 110.158 30.375, 110.385 30.938, 110.662 30.250 C 110.940 29.563, 110.940 28.438, 110.662 27.750 C 110.385 27.063, 110.158 27.625, 110.158 29 M 127 27.378 C 127 27.585, 127.787 28.373, 128.750 29.128 C 130.336 30.371, 130.371 30.336, 129.128 28.750 C 127.821 27.084, 127 26.555, 127 27.378 M 100.226 33.579 C 101.176 34.570, 102.168 35.166, 102.431 34.903 C 102.694 34.640, 101.917 33.829, 100.705 33.100 C 98.598 31.835, 98.577 31.857, 100.226 33.579 M 109.270 36.069 C 109.097 38.366, 109.568 38.568, 110.349 36.532 C 110.659 35.725, 110.576 34.856, 110.164 34.601 C 109.752 34.347, 109.350 35.007, 109.270 36.069 M 102.795 53.597 C 102.633 63.276, 102.800 71.379, 103.168 71.605 C 103.535 71.831, 103.889 63.913, 103.954 54.008 C 104.020 44.104, 103.852 36, 103.581 36 C 103.311 36, 102.957 43.919, 102.795 53.597 M 74.405 39.250 L 72.500 41.500 74.750 39.595 C 75.987 38.547, 77 37.535, 77 37.345 C 77 36.545, 76.195 37.136, 74.405 39.250 M 111.087 39.396 C 110.145 40.530, 110.168 40.798, 111.194 40.648 C 112.576 40.445, 113.467 39.133, 112.726 38.393 C 112.483 38.150, 111.746 38.601, 111.087 39.396 M 114.553 42.915 C 114.231 43.436, 114.394 44.125, 114.915 44.447 C 115.436 44.769, 116.125 44.606, 116.447 44.085 C 116.769 43.564, 116.606 42.875, 116.085 42.553 C 115.564 42.231, 114.875 42.394, 114.553 42.915 M 74.500 47 C 75.495 48.100, 76.535 49, 76.810 49 C 77.085 49, 76.495 48.100, 75.500 47 C 74.505 45.900, 73.465 45, 73.190 45 C 72.915 45, 73.505 45.900, 74.500 47 M 118.057 48.569 C 118.701 49.344, 119.656 49.713, 120.180 49.389 C 121.344 48.669, 120.480 47.688, 118.415 47.385 C 117.211 47.208, 117.135 47.458, 118.057 48.569 M 121.553 51.915 C 121.231 52.436, 121.394 53.125, 121.915 53.447 C 122.436 53.769, 123.125 53.606, 123.447 53.085 C 123.769 52.564, 123.606 51.875, 123.085 51.553 C 122.564 51.231, 121.875 51.394, 121.553 51.915 M 124.553 55.915 C 124.231 56.436, 124.394 57.125, 124.915 57.447 C 125.436 57.769, 126.125 57.606, 126.447 57.085 C 126.769 56.564, 126.606 55.875, 126.085 55.553 C 125.564 55.231, 124.875 55.394, 124.553 55.915 M 127 60.544 C 127 60.660, 127.600 61.253, 128.333 61.862 C 129.330 62.689, 129.667 62.635, 129.667 61.651 C 129.667 60.926, 129.067 60.333, 128.333 60.333 C 127.600 60.333, 127 60.428, 127 60.544 M 60.813 61.683 C 61.534 61.972, 62.397 61.936, 62.729 61.604 C 63.061 61.272, 62.471 61.036, 61.417 61.079 C 60.252 61.127, 60.015 61.364, 60.813 61.683 M 114.079 65.583 C 114.127 66.748, 114.364 66.985, 114.683 66.188 C 114.972 65.466, 114.936 64.603, 114.604 64.271 C 114.272 63.939, 114.036 64.529, 114.079 65.583 M 122.079 69.583 C 122.127 70.748, 122.364 70.985, 122.683 70.188 C 122.972 69.466, 122.936 68.603, 122.604 68.271 C 122.272 67.939, 122.036 68.529, 122.079 69.583 M 73.441 70.555 C 71.531 72.085, 71.532 72.096, 73.500 71.190 C 74.600 70.684, 76.175 70.020, 77 69.714 C 78.296 69.234, 78.288 69.147, 76.941 69.079 C 76.084 69.036, 74.509 69.700, 73.441 70.555 M 79 71 C 78.175 71.533, 77.950 71.969, 78.500 71.969 C 79.050 71.969, 80.175 71.533, 81 71 C 81.825 70.467, 82.050 70.031, 81.500 70.031 C 80.950 70.031, 79.825 70.467, 79 71 M 84 72 C 83.099 72.582, 82.975 72.975, 83.691 72.985 C 84.346 72.993, 85.160 72.550, 85.500 72 C 86.267 70.758, 85.921 70.758, 84 72 M 114.872 72.250 C 115.627 73.213, 117.202 73.948, 118.372 73.884 C 120.393 73.774, 120.400 73.743, 118.500 73.276 C 117.400 73.006, 115.825 72.271, 115 71.642 C 113.695 70.649, 113.679 70.728, 114.872 72.250 M 65.437 72.771 C 65.779 73.112, 66.761 73.494, 67.621 73.621 C 68.480 73.747, 68.904 73.571, 68.563 73.229 C 68.221 72.888, 67.239 72.506, 66.379 72.379 C 65.520 72.253, 65.096 72.429, 65.437 72.771 M 88.500 73 C 87.181 73.567, 87.011 73.878, 88 73.914 C 88.825 73.945, 90.175 73.533, 91 73 C 92.828 71.819, 91.249 71.819, 88.500 73 M 93 74 C 91.172 75.181, 92.751 75.181, 95.500 74 C 96.819 73.433, 96.989 73.122, 96 73.086 C 95.175 73.055, 93.825 73.467, 93 74 M 69.923 74.250 C 69.201 76.610, 69.526 78.166, 71.022 79.520 C 72.538 80.892, 72.811 80.921, 72.630 79.687 C 72.510 78.870, 71.873 77.552, 71.215 76.759 C 70.556 75.965, 70.313 75.020, 70.675 74.658 C 71.037 74.296, 71.033 74, 70.667 74 C 70.300 74, 69.966 74.112, 69.923 74.250 M 98 75 C 97.099 75.582, 96.975 75.975, 97.691 75.985 C 98.346 75.993, 99.160 75.550, 99.500 75 C 100.267 73.758, 99.921 73.758, 98 75 M 133.731 78.920 C 133.296 80.583, 133.426 80.974, 134.168 80.232 C 134.750 79.650, 135.028 78.585, 134.788 77.863 C 134.538 77.114, 134.085 77.568, 133.731 78.920 M 141.345 78.543 C 141.019 79.392, 140.976 80.310, 141.249 80.583 C 141.523 80.856, 141.986 80.161, 142.279 79.040 C 142.903 76.657, 142.210 76.289, 141.345 78.543 M 103.813 80.683 C 104.534 80.972, 105.397 80.936, 105.729 80.604 C 106.061 80.272, 105.471 80.036, 104.417 80.079 C 103.252 80.127, 103.015 80.364, 103.813 80.683 M 140.875 82.500 C 140.806 82.775, 140.687 83.338, 140.610 83.750 C 140.533 84.162, 140.168 84.971, 139.801 85.548 C 139.433 86.124, 139.595 87.249, 140.160 88.048 C 140.999 89.232, 141.085 89.177, 140.626 87.750 C 140.316 86.787, 140.471 86, 140.969 86 C 141.468 86, 141.808 85.100, 141.725 84 C 141.584 82.125, 141.157 81.372, 140.875 82.500 M 75.623 83.801 C 75.306 84.314, 75.892 85.497, 76.924 86.431 C 77.957 87.366, 79.061 87.711, 79.377 87.199 C 79.694 86.686, 79.108 85.503, 78.076 84.569 C 77.043 83.634, 75.939 83.289, 75.623 83.801 M 76 84.378 C 76 84.585, 76.787 85.373, 77.750 86.128 C 79.336 87.371, 79.371 87.336, 78.128 85.750 C 76.821 84.084, 76 83.555, 76 84.378 M 144.581 89.296 C 144.129 92.483, 144.009 95.342, 144.315 95.648 C 145.147 96.481, 146.219 89.742, 145.784 86.408 C 145.504 84.257, 145.190 85.010, 144.581 89.296 M 122 85.378 C 122 85.585, 122.787 86.373, 123.750 87.128 C 125.336 88.371, 125.371 88.336, 124.128 86.750 C 122.821 85.084, 122 84.555, 122 85.378 M 160.079 86.583 C 160.127 87.748, 160.364 87.985, 160.683 87.188 C 160.972 86.466, 160.936 85.603, 160.604 85.271 C 160.272 84.939, 160.036 85.529, 160.079 86.583 M 119.015 91.250 C 119.029 95.372, 119.069 95.425, 120.354 93 C 121.199 91.405, 121.362 89.866, 120.804 88.750 C 119.443 86.026, 118.999 86.645, 119.015 91.250 M 136.923 87.250 C 136.384 89.014, 136.290 91.043, 136.771 90.563 C 137.500 89.833, 138.010 87, 137.412 87 C 137.185 87, 136.966 87.112, 136.923 87.250 M 81.333 90.492 C 81.333 91.317, 82.083 92.670, 83 93.500 C 84.478 94.837, 84.667 94.838, 84.667 93.508 C 84.667 92.683, 83.917 91.330, 83 90.500 C 81.522 89.163, 81.333 89.162, 81.333 90.492 M 126.895 91.226 C 129.084 93.704, 131.865 94.208, 130.416 91.864 C 130.077 91.316, 129.544 91.123, 129.231 91.436 C 128.918 91.748, 127.726 91.219, 126.581 90.259 C 125.020 88.951, 125.099 89.192, 126.895 91.226 M 133.070 90.583 C 133.109 91.638, 133.550 93.400, 134.051 94.500 C 134.762 96.062, 134.872 95.767, 134.553 93.156 C 134.106 89.496, 132.957 87.503, 133.070 90.583 M 154.872 90.750 C 153.680 92.271, 153.697 92.354, 155 91.384 C 155.825 90.771, 157.175 90.019, 158 89.713 C 159.255 89.249, 159.234 89.145, 157.872 89.079 C 156.977 89.036, 155.627 89.787, 154.872 90.750 M 47.980 91.524 C 47.284 92.362, 46.909 93.242, 47.145 93.479 C 47.382 93.715, 48.125 93.030, 48.796 91.955 C 50.248 89.630, 49.764 89.375, 47.980 91.524 M 150.872 91.750 C 149.629 93.336, 149.664 93.371, 151.250 92.128 C 152.213 91.373, 153 90.585, 153 90.378 C 153 89.555, 152.179 90.084, 150.872 91.750 M 113 95.500 C 114.292 96.875, 115.574 98, 115.849 98 C 116.124 98, 115.292 96.875, 114 95.500 C 112.708 94.125, 111.426 93, 111.151 93 C 110.876 93, 111.708 94.125, 113 95.500 M 114 93.313 C 114 93.485, 115.463 94.948, 117.250 96.563 L 120.500 99.500 117.563 96.250 C 114.825 93.221, 114 92.540, 114 93.313 M 68.813 95.683 C 69.534 95.972, 70.397 95.936, 70.729 95.604 C 71.061 95.272, 70.471 95.036, 69.417 95.079 C 68.252 95.127, 68.015 95.364, 68.813 95.683 M 74.813 96.683 C 75.534 96.972, 76.397 96.936, 76.729 96.604 C 77.061 96.272, 76.471 96.036, 75.417 96.079 C 74.252 96.127, 74.015 96.364, 74.813 96.683 M 149.278 97.250 C 148.746 97.938, 148.010 99.339, 147.643 100.363 C 147.174 101.674, 146.343 102.062, 144.844 101.669 C 143.338 101.276, 143.024 101.424, 143.775 102.175 C 144.527 102.927, 145.728 102.845, 147.869 101.898 C 149.730 101.074, 150.462 100.285, 149.764 99.854 C 148.935 99.342, 148.982 98.727, 149.937 97.576 C 150.656 96.709, 151.020 96, 150.745 96 C 150.470 96, 149.810 96.563, 149.278 97.250 M 126.211 98.601 C 125.501 99.370, 125.362 100, 125.902 100 C 126.940 100, 128.443 98.098, 127.850 97.534 C 127.658 97.351, 126.920 97.831, 126.211 98.601 M 62.813 98.683 C 63.534 98.972, 64.397 98.936, 64.729 98.604 C 65.061 98.272, 64.471 98.036, 63.417 98.079 C 62.252 98.127, 62.015 98.364, 62.813 98.683 M 121 98.941 C 121 99.459, 121.445 100.157, 121.989 100.493 C 122.555 100.843, 122.723 100.442, 122.382 99.552 C 121.717 97.820, 121 97.503, 121 98.941 M 156.373 98.795 C 157.289 100.276, 161.186 101.060, 160.729 99.671 C 160.517 99.027, 159.316 98.350, 158.061 98.166 C 156.780 97.978, 156.039 98.255, 156.373 98.795 M 103.459 100.067 C 103.096 100.653, 103.014 101.348, 103.276 101.610 C 103.538 101.872, 104.019 101.392, 104.345 100.543 C 105.021 98.781, 104.445 98.471, 103.459 100.067 M 106.900 100.304 C 107.345 100.747, 110.362 100.966, 113.604 100.792 L 119.500 100.475 112.796 99.987 C 109.108 99.719, 106.455 99.862, 106.900 100.304 M 80.813 101.683 C 81.534 101.972, 82.397 101.936, 82.729 101.604 C 83.061 101.272, 82.471 101.036, 81.417 101.079 C 80.252 101.127, 80.015 101.364, 80.813 101.683 M 163.491 101.825 C 163.762 102.095, 163.477 102.925, 162.859 103.670 C 162.047 104.649, 161.377 104.728, 160.448 103.957 C 159.470 103.145, 159.233 103.323, 159.463 104.694 C 159.629 105.687, 158.380 107.963, 156.687 109.750 C 154.096 112.485, 153.903 113, 155.470 113 C 156.495 113, 157.022 112.688, 156.641 112.308 C 156.260 111.927, 158.233 109.302, 161.025 106.474 C 164.116 103.344, 165.496 101.333, 164.551 101.333 C 163.698 101.333, 163.221 101.554, 163.491 101.825 M 110.193 105.733 C 110.794 106.456, 111.514 106.819, 111.794 106.540 C 112.073 106.260, 112.910 106.812, 113.654 107.766 C 114.891 109.354, 114.955 109.357, 114.415 107.801 C 113.970 106.518, 114.642 105.867, 117.163 105.141 C 118.998 104.613, 119.683 104.140, 118.684 104.090 C 117.686 104.041, 115.998 104.466, 114.934 105.035 C 113.723 105.683, 113 105.707, 113 105.097 C 113 104.562, 112.123 104.190, 111.051 104.271 C 109.559 104.384, 109.358 104.726, 110.193 105.733 M 147.589 104.856 C 147.298 105.326, 148.172 105.499, 149.530 105.239 C 150.889 104.979, 152 104.594, 152 104.383 C 152 103.610, 148.101 104.027, 147.589 104.856 M 80.603 105.833 C 80.320 106.292, 80.723 106.667, 81.500 106.667 C 82.277 106.667, 82.680 106.292, 82.397 105.833 C 82.114 105.375, 81.710 105, 81.500 105 C 81.290 105, 80.886 105.375, 80.603 105.833 M 116 109.032 C 116 109.565, 116.862 110, 117.917 110 C 118.971 110, 120.062 110.461, 120.342 111.025 C 120.621 111.589, 120.748 111.519, 120.624 110.871 C 120.341 109.400, 116 107.674, 116 109.032 M 171.813 108.683 C 172.534 108.972, 173.397 108.936, 173.729 108.604 C 174.061 108.272, 173.471 108.036, 172.417 108.079 C 171.252 108.127, 171.015 108.364, 171.813 108.683 M 104 110.941 C 104 111.459, 104.445 112.157, 104.989 112.493 C 105.555 112.843, 105.723 112.442, 105.382 111.552 C 104.717 109.820, 104 109.503, 104 110.941 M 92 111.393 C 92 111.609, 92.698 112.054, 93.552 112.382 C 94.442 112.723, 94.843 112.555, 94.493 111.989 C 93.906 111.038, 92 110.583, 92 111.393 M 163.750 111.662 C 164.438 111.940, 165.563 111.940, 166.250 111.662 C 166.938 111.385, 166.375 111.158, 165 111.158 C 163.625 111.158, 163.063 111.385, 163.750 111.662 M 114.500 114 C 112.824 115.851, 112.817 116, 114.404 116 C 115.347 116, 115.840 116.450, 115.500 117 C 115.160 117.550, 115.389 118, 116.008 118 C 116.663 118, 116.880 117.198, 116.527 116.084 C 116.192 115.030, 116.456 113.836, 117.114 113.430 C 117.919 112.932, 118.045 113.118, 117.500 114 C 116.965 114.866, 117.082 115.068, 117.845 114.595 C 118.480 114.203, 119 113.459, 119 112.941 C 119 111.305, 116.381 111.921, 114.500 114 M 136.872 113.750 C 135.629 115.336, 135.664 115.371, 137.250 114.128 C 138.213 113.373, 139 112.585, 139 112.378 C 139 111.555, 138.179 112.084, 136.872 113.750 M 68.613 114.183 C 68.902 114.650, 69.557 114.774, 70.069 114.457 C 71.377 113.649, 71.230 113.333, 69.544 113.333 C 68.743 113.333, 68.324 113.716, 68.613 114.183 M 84.813 114.683 C 85.534 114.972, 86.397 114.936, 86.729 114.604 C 87.061 114.272, 86.471 114.036, 85.417 114.079 C 84.252 114.127, 84.015 114.364, 84.813 114.683 M 161.269 114.693 C 162.242 114.947, 163.592 114.930, 164.269 114.656 C 164.946 114.382, 164.150 114.175, 162.500 114.195 C 160.850 114.215, 160.296 114.439, 161.269 114.693 M 63.603 115.833 C 63.320 116.292, 63.723 116.667, 64.500 116.667 C 65.277 116.667, 65.680 116.292, 65.397 115.833 C 65.114 115.375, 64.710 115, 64.500 115 C 64.290 115, 63.886 115.375, 63.603 115.833 M 79.813 115.683 C 80.534 115.972, 81.397 115.936, 81.729 115.604 C 82.061 115.272, 81.471 115.036, 80.417 115.079 C 79.252 115.127, 79.015 115.364, 79.813 115.683 M 120.352 115.760 C 120.715 116.348, 120.447 117.057, 119.756 117.336 C 118.857 117.698, 118.839 117.865, 119.691 117.921 C 121.412 118.035, 122.239 116.265, 120.862 115.415 C 120.164 114.983, 119.958 115.123, 120.352 115.760 M 131.750 115.662 C 132.438 115.940, 133.563 115.940, 134.250 115.662 C 134.938 115.385, 134.375 115.158, 133 115.158 C 131.625 115.158, 131.063 115.385, 131.750 115.662 M 171.813 115.683 C 172.534 115.972, 173.397 115.936, 173.729 115.604 C 174.061 115.272, 173.471 115.036, 172.417 115.079 C 171.252 115.127, 171.015 115.364, 171.813 115.683 M 109.500 117 C 108.712 118.276, 109.759 120.005, 111.309 119.985 C 112.092 119.975, 112.028 119.670, 111.122 119.096 C 110.364 118.616, 110.053 117.723, 110.431 117.112 C 110.809 116.500, 110.893 116, 110.618 116 C 110.343 116, 109.840 116.450, 109.500 117 M 122.241 117.986 C 121.558 119.079, 121.014 121.216, 121.030 122.736 C 121.057 125.118, 121.203 125.255, 122.092 123.729 C 122.673 122.730, 123.641 122.269, 124.311 122.671 C 125.048 123.112, 124.993 122.758, 124.167 121.740 C 123.414 120.810, 123.117 119.206, 123.485 118.048 C 124.307 115.458, 123.834 115.435, 122.241 117.986 M 52.750 117.662 C 53.438 117.940, 54.563 117.940, 55.250 117.662 C 55.938 117.385, 55.375 117.158, 54 117.158 C 52.625 117.158, 52.063 117.385, 52.750 117.662 M 61.333 118.456 C 61.333 119.257, 61.716 119.676, 62.183 119.387 C 62.650 119.098, 62.774 118.443, 62.457 117.931 C 61.649 116.623, 61.333 116.770, 61.333 118.456 M 69.813 117.683 C 70.534 117.972, 71.397 117.936, 71.729 117.604 C 72.061 117.272, 71.471 117.036, 70.417 117.079 C 69.252 117.127, 69.015 117.364, 69.813 117.683 M 87 117.393 C 87 117.609, 87.698 118.054, 88.552 118.382 C 89.442 118.723, 89.843 118.555, 89.493 117.989 C 88.906 117.038, 87 116.583, 87 117.393 M 82.813 118.683 C 83.534 118.972, 84.397 118.936, 84.729 118.604 C 85.061 118.272, 84.471 118.036, 83.417 118.079 C 82.252 118.127, 82.015 118.364, 82.813 118.683 M 151 118.393 C 151 118.609, 151.698 119.054, 152.552 119.382 C 153.442 119.723, 153.843 119.555, 153.493 118.989 C 152.906 118.038, 151 117.583, 151 118.393 M 160.603 118.833 C 160.320 119.292, 160.723 119.667, 161.500 119.667 C 162.277 119.667, 162.680 119.292, 162.397 118.833 C 162.114 118.375, 161.710 118, 161.500 118 C 161.290 118, 160.886 118.375, 160.603 118.833 M 162.559 121.532 C 161.491 122.339, 161.099 123, 161.686 123 C 162.274 123, 163.315 122.325, 164 121.500 C 165.557 119.624, 165.067 119.634, 162.559 121.532 M 165.667 121.667 C 164.445 122.889, 164.979 124.001, 166.750 123.921 C 167.806 123.873, 168.002 123.641, 167.244 123.336 C 166.553 123.057, 166.242 122.418, 166.553 121.915 C 167.209 120.852, 166.640 120.693, 165.667 121.667 M 64 122.890 C 65.234 123.778, 65.057 123.986, 63 124.064 C 61.625 124.115, 60.980 124.357, 61.567 124.601 C 62.154 124.845, 64.404 124.630, 66.567 124.123 C 68.759 123.609, 69.540 123.156, 68.332 123.100 C 67.139 123.045, 65.339 122.733, 64.332 122.406 C 62.808 121.911, 62.752 121.993, 64 122.890 M 93.872 124.750 C 92.680 126.271, 92.697 126.354, 94 125.384 C 94.825 124.771, 96.175 124.019, 97 123.713 C 98.255 123.249, 98.234 123.145, 96.872 123.079 C 95.977 123.036, 94.627 123.787, 93.872 124.750 M 73 125 C 71.020 125.634, 70.916 125.801, 72.500 125.801 C 73.600 125.801, 75.625 125.440, 77 125 C 78.980 124.366, 79.084 124.199, 77.500 124.199 C 76.400 124.199, 74.375 124.560, 73 125 M 122.211 125.601 C 121.501 126.370, 121.362 127, 121.902 127 C 122.940 127, 124.443 125.098, 123.850 124.534 C 123.658 124.351, 122.920 124.831, 122.211 125.601 M 49 125.378 C 49 125.585, 49.788 126.373, 50.750 127.128 C 52.336 128.371, 52.371 128.336, 51.128 126.750 C 49.821 125.084, 49 124.555, 49 125.378 M 56.872 126.750 C 55.629 128.336, 55.664 128.371, 57.250 127.128 C 58.916 125.821, 59.445 125, 58.622 125 C 58.415 125, 57.627 125.787, 56.872 126.750 M 82 126 C 80.020 126.634, 79.916 126.801, 81.500 126.801 C 82.600 126.801, 84.625 126.440, 86 126 C 87.980 125.366, 88.084 125.199, 86.500 125.199 C 85.400 125.199, 83.375 125.560, 82 126 M 177.079 126.583 C 177.127 127.748, 177.364 127.985, 177.683 127.188 C 177.972 126.466, 177.936 125.603, 177.604 125.271 C 177.272 124.939, 177.036 125.529, 177.079 126.583 M 100.079 127.583 C 100.127 128.748, 100.364 128.985, 100.683 128.188 C 100.972 127.466, 100.936 126.603, 100.604 126.271 C 100.272 125.939, 100.036 126.529, 100.079 127.583 M 167.733 127.124 C 168.412 127.808, 169.219 128.115, 169.526 127.807 C 169.834 127.499, 169.279 126.940, 168.293 126.564 C 166.868 126.022, 166.753 126.136, 167.733 127.124 M 89.750 127.662 C 90.438 127.940, 91.563 127.940, 92.250 127.662 C 92.938 127.385, 92.375 127.158, 91 127.158 C 89.625 127.158, 89.063 127.385, 89.750 127.662 M 156.500 128 C 157.600 128.473, 160.075 128.846, 162 128.830 C 165.182 128.803, 165.273 128.728, 163 128 C 161.625 127.560, 159.150 127.186, 157.500 127.170 C 154.953 127.145, 154.802 127.270, 156.500 128 M 149 132.969 C 149 133.501, 149.787 133.660, 150.750 133.321 C 152.179 132.819, 152.270 132.953, 151.250 134.053 C 150.563 134.794, 150.014 135.873, 150.032 136.450 C 150.049 137.028, 150.710 136.646, 151.500 135.603 C 152.290 134.559, 152.699 133.322, 152.409 132.853 C 151.686 131.682, 149 131.774, 149 132.969 M 93 134.941 C 93 135.459, 93.445 136.157, 93.989 136.493 C 94.555 136.843, 94.723 136.442, 94.382 135.552 C 93.717 133.820, 93 133.503, 93 134.941 M 100.825 137.326 C 100.452 139.151, 100.592 139.808, 101.218 139.182 C 101.751 138.649, 102.011 137.377, 101.794 136.356 C 101.503 134.981, 101.251 135.233, 100.825 137.326 M 108.079 136.583 C 108.127 137.748, 108.364 137.985, 108.683 137.188 C 108.972 136.466, 108.936 135.603, 108.604 135.271 C 108.272 134.939, 108.036 135.529, 108.079 136.583 M 92.564 138.293 C 92.940 139.279, 93.499 139.834, 93.807 139.526 C 94.115 139.219, 93.808 138.412, 93.124 137.733 C 92.136 136.753, 92.022 136.868, 92.564 138.293 M 135.750 138.031 C 136.988 138.529, 138.036 139.738, 138.079 140.718 C 138.128 141.821, 138.354 142.011, 138.673 141.216 C 139.353 139.524, 137.184 136.983, 135.128 137.063 C 134.026 137.106, 134.227 137.419, 135.750 138.031 M 151.459 138.067 C 151.096 138.653, 151.014 139.348, 151.276 139.610 C 151.538 139.872, 152.019 139.392, 152.345 138.543 C 153.021 136.781, 152.445 136.471, 151.459 138.067 M 91.564 141.293 C 91.940 142.279, 92.499 142.834, 92.807 142.526 C 93.115 142.219, 92.808 141.412, 92.124 140.733 C 91.136 139.753, 91.022 139.868, 91.564 141.293 M 129.079 142.583 C 129.127 143.748, 129.364 143.985, 129.683 143.188 C 129.972 142.466, 129.936 141.603, 129.604 141.271 C 129.272 140.939, 129.036 141.529, 129.079 142.583 M 164.564 142.293 C 164.940 143.279, 165.499 143.834, 165.807 143.526 C 166.115 143.219, 165.808 142.412, 165.124 141.733 C 164.136 140.753, 164.022 140.868, 164.564 142.293 M 96.872 143.750 C 95.629 145.336, 95.664 145.371, 97.250 144.128 C 98.213 143.373, 99 142.585, 99 142.378 C 99 141.555, 98.179 142.084, 96.872 143.750 M 132.899 143.500 C 134.585 146.762, 135.970 148.570, 135.962 147.500 C 135.959 146.950, 135.035 145.375, 133.911 144 C 132.552 142.339, 132.213 142.172, 132.899 143.500 M 153.364 144.494 C 153.048 145.316, 152.318 145.697, 151.741 145.340 C 151.128 144.961, 150.988 145.171, 151.405 145.845 C 152.386 147.433, 152.764 147.310, 154 145 C 154.589 143.900, 154.815 143, 154.504 143 C 154.192 143, 153.679 143.672, 153.364 144.494 M 108.553 144.915 C 108.231 145.436, 108.394 146.125, 108.915 146.447 C 109.436 146.769, 110.125 146.606, 110.447 146.085 C 110.769 145.564, 110.606 144.875, 110.085 144.553 C 109.564 144.231, 108.875 144.394, 108.553 144.915 M 123.984 149.797 L 124.468 155.500 124.795 150.610 C 124.974 147.921, 124.756 145.355, 124.310 144.907 C 123.865 144.460, 123.718 146.660, 123.984 149.797 M 138.451 145.079 C 138.198 145.489, 138.655 145.727, 139.466 145.608 C 141.556 145.301, 142.307 144.333, 140.456 144.333 C 139.607 144.333, 138.705 144.669, 138.451 145.079 M 116 146 C 115.099 146.582, 114.975 146.975, 115.691 146.985 C 116.346 146.993, 117.160 146.550, 117.500 146 C 118.267 144.758, 117.921 144.758, 116 146 M 72.079 147.583 C 72.127 148.748, 72.364 148.985, 72.683 148.188 C 72.972 147.466, 72.936 146.603, 72.604 146.271 C 72.272 145.939, 72.036 146.529, 72.079 147.583 M 127.320 152 C 127.320 155.575, 127.502 157.037, 127.723 155.250 C 127.945 153.463, 127.945 150.537, 127.723 148.750 C 127.502 146.963, 127.320 148.425, 127.320 152 M 142.437 146.771 C 142.779 147.112, 143.761 147.494, 144.621 147.621 C 145.480 147.747, 145.904 147.571, 145.563 147.229 C 145.221 146.888, 144.239 146.506, 143.379 146.379 C 142.520 146.253, 142.096 146.429, 142.437 146.771 M 154.110 147.367 C 153.250 148.404, 153.320 149.021, 154.399 149.916 C 155.495 150.826, 155.993 150.821, 156.565 149.894 C 157.069 149.080, 156.885 148.953, 155.997 149.502 C 155.020 150.106, 154.829 149.763, 155.249 148.156 C 155.905 145.646, 155.673 145.485, 154.110 147.367 M 132.564 148.293 C 132.940 149.279, 133.499 149.834, 133.807 149.526 C 134.115 149.219, 133.808 148.412, 133.124 147.733 C 132.136 146.753, 132.022 146.868, 132.564 148.293 M 117.564 149.707 C 117.022 151.132, 117.136 151.247, 118.124 150.267 C 118.808 149.588, 119.115 148.781, 118.807 148.474 C 118.499 148.166, 117.940 148.721, 117.564 149.707 M 101.553 149.915 C 101.231 150.436, 101.394 151.125, 101.915 151.447 C 102.436 151.769, 103.125 151.606, 103.447 151.085 C 103.769 150.564, 103.606 149.875, 103.085 149.553 C 102.564 149.231, 101.875 149.394, 101.553 149.915 M 146.613 150.183 C 146.902 150.650, 147.557 150.774, 148.069 150.457 C 149.377 149.649, 149.230 149.333, 147.544 149.333 C 146.743 149.333, 146.324 149.716, 146.613 150.183 M 94.872 151.750 C 93.629 153.336, 93.664 153.371, 95.250 152.128 C 96.916 150.821, 97.445 150, 96.622 150 C 96.415 150, 95.627 150.787, 94.872 151.750 M 131 150.882 C 131 151.432, 131.450 152.160, 132 152.500 C 132.550 152.840, 133 152.668, 133 152.118 C 133 151.568, 132.550 150.840, 132 150.500 C 131.450 150.160, 131 150.332, 131 150.882 M 87 151.941 C 87 152.459, 87.445 153.157, 87.989 153.493 C 88.555 153.843, 88.723 153.442, 88.382 152.552 C 87.717 150.820, 87 150.503, 87 151.941 M 118.564 152.707 C 118.022 154.132, 118.136 154.247, 119.124 153.267 C 119.808 152.588, 120.115 151.781, 119.807 151.474 C 119.499 151.166, 118.940 151.721, 118.564 152.707 M 150.603 151.833 C 150.320 152.292, 150.743 152.667, 151.544 152.667 C 152.345 152.667, 153 152.292, 153 151.833 C 153 151.375, 152.577 151, 152.059 151 C 151.541 151, 150.886 151.375, 150.603 151.833 M 98.613 153.183 C 98.902 153.650, 99.557 153.774, 100.069 153.457 C 101.377 152.649, 101.230 152.333, 99.544 152.333 C 98.743 152.333, 98.324 152.716, 98.613 153.183 M 157.733 153.124 C 158.412 153.808, 159.219 154.115, 159.526 153.807 C 159.834 153.499, 159.279 152.940, 158.293 152.564 C 156.868 152.022, 156.753 152.136, 157.733 153.124 M 130 153.882 C 130 154.432, 130.450 155.160, 131 155.500 C 131.550 155.840, 132 155.668, 132 155.118 C 132 154.568, 131.550 153.840, 131 153.500 C 130.450 153.160, 130 153.332, 130 153.882 M 86.656 155.545 C 86.960 156.339, 87.612 156.740, 88.105 156.435 C 89.345 155.669, 89.231 155.303, 87.551 154.658 C 86.584 154.287, 86.286 154.582, 86.656 155.545 M 94.553 154.915 C 94.231 155.436, 94.394 156.125, 94.915 156.447 C 95.436 156.769, 96.125 156.606, 96.447 156.085 C 96.769 155.564, 96.606 154.875, 96.085 154.553 C 95.564 154.231, 94.875 154.394, 94.553 154.915 M 119.624 155.539 C 118.659 158.053, 118.943 158.702, 120.122 156.675 C 120.706 155.671, 120.973 154.639, 120.715 154.382 C 120.458 154.124, 119.966 154.645, 119.624 155.539 M 153.825 156.674 C 154.251 158.767, 154.503 159.019, 154.794 157.644 C 155.011 156.623, 154.751 155.351, 154.218 154.818 C 153.592 154.192, 153.452 154.849, 153.825 156.674 M 91.446 156.087 C 91.077 156.685, 91.224 157.624, 91.774 158.174 C 92.441 158.841, 93.030 158.760, 93.542 157.933 C 94.071 157.075, 93.899 156.944, 92.985 157.510 C 92.023 158.104, 91.835 157.872, 92.299 156.664 C 93.017 154.793, 92.473 154.426, 91.446 156.087 M 162.079 157.583 C 162.127 158.748, 162.364 158.985, 162.683 158.188 C 162.972 157.466, 162.936 156.603, 162.604 156.271 C 162.272 155.939, 162.036 156.529, 162.079 157.583 M 84 158 C 83.099 158.582, 82.975 158.975, 83.691 158.985 C 84.346 158.993, 85.160 158.550, 85.500 158 C 86.267 156.758, 85.921 156.758, 84 158 M 120.459 159.067 C 120.096 159.653, 120.014 160.348, 120.276 160.610 C 120.538 160.872, 121.019 160.392, 121.345 159.543 C 122.021 157.781, 121.445 157.471, 120.459 159.067 M 128 159.941 C 128 160.459, 128.445 161.157, 128.989 161.493 C 129.555 161.843, 129.723 161.442, 129.382 160.552 C 128.717 158.820, 128 158.503, 128 159.941 M 121.564 162.707 C 121.022 164.132, 121.136 164.247, 122.124 163.267 C 122.808 162.588, 123.115 161.781, 122.807 161.474 C 122.499 161.166, 121.940 161.721, 121.564 162.707 M 157.813 161.683 C 158.534 161.972, 159.397 161.936, 159.729 161.604 C 160.061 161.272, 159.471 161.036, 158.417 161.079 C 157.252 161.127, 157.015 161.364, 157.813 161.683 M 79.116 163.628 C 79.052 164.798, 79.787 166.373, 80.750 167.128 C 82.272 168.321, 82.351 168.305, 81.358 167 C 80.729 166.175, 79.994 164.600, 79.724 163.500 C 79.257 161.600, 79.226 161.607, 79.116 163.628 M 127.031 162.500 C 127.031 163.050, 127.467 164.175, 128 165 C 128.533 165.825, 128.969 166.050, 128.969 165.500 C 128.969 164.950, 128.533 163.825, 128 163 C 127.467 162.175, 127.031 161.950, 127.031 162.500 M 122.564 165.707 C 122.022 167.132, 122.136 167.247, 123.124 166.267 C 123.808 165.588, 124.115 164.781, 123.807 164.474 C 123.499 164.166, 122.940 164.721, 122.564 165.707 M 109.158 172 C 109.158 173.375, 109.385 173.938, 109.662 173.250 C 109.940 172.563, 109.940 171.438, 109.662 170.750 C 109.385 170.063, 109.158 170.625, 109.158 172 M 129.158 173 C 129.158 174.375, 129.385 174.938, 129.662 174.250 C 129.940 173.563, 129.940 172.438, 129.662 171.750 C 129.385 171.063, 129.158 171.625, 129.158 173 M 142.813 172.683 C 143.534 172.972, 144.397 172.936, 144.729 172.604 C 145.061 172.272, 144.471 172.036, 143.417 172.079 C 142.252 172.127, 142.015 172.364, 142.813 172.683 M 48.750 181.706 C 49.987 181.944, 52.013 181.944, 53.250 181.706 C 54.487 181.467, 53.475 181.272, 51 181.272 C 48.525 181.272, 47.513 181.467, 48.750 181.706 M 59.496 182.250 C 59.253 182.938, 58.930 185.957, 58.777 188.959 C 58.529 193.840, 58.235 194.487, 56 195.061 C 54.550 195.433, 56.710 195.758, 61.142 195.834 C 67.323 195.941, 69.034 195.635, 70.093 194.233 C 71.206 192.761, 71.192 192.688, 70.002 193.750 C 69.231 194.438, 66.665 195, 64.300 195 L 60 195 60 188.557 L 60 182.115 64.250 181.732 L 68.500 181.349 64.219 181.175 C 61.558 181.066, 59.770 181.473, 59.496 182.250 M 78.269 181.693 C 79.242 181.947, 80.592 181.930, 81.269 181.656 C 81.946 181.382, 81.150 181.175, 79.500 181.195 C 77.850 181.215, 77.296 181.439, 78.269 181.693 M 85 188.500 L 85 196 89.250 195.832 L 93.500 195.664 89.750 195.272 L 86 194.879 86 188.503 L 86 182.127 89.250 181.723 C 92.450 181.326, 92.442 181.318, 88.750 181.160 L 85 181 85 188.500 M 105 181.393 C 105 181.609, 105.698 182.054, 106.552 182.382 C 107.442 182.723, 107.843 182.555, 107.493 181.989 C 106.906 181.038, 105 180.583, 105 181.393 M 114.667 181.667 C 114.300 182.033, 114.007 182.821, 114.015 183.417 C 114.026 184.150, 114.268 184.133, 114.765 183.366 C 115.169 182.742, 116.400 182.007, 117.500 181.732 C 119.435 181.248, 119.432 181.228, 117.417 181.116 C 116.271 181.052, 115.033 181.300, 114.667 181.667 M 125.750 181.662 C 126.438 181.940, 127.563 181.940, 128.250 181.662 C 128.938 181.385, 128.375 181.158, 127 181.158 C 125.625 181.158, 125.063 181.385, 125.750 181.662 M 138.750 181.656 C 140.797 182.095, 141 182.713, 141 188.500 C 141 194.287, 140.797 194.905, 138.750 195.344 C 136.767 195.770, 136.797 195.808, 139 195.664 C 141.413 195.506, 141.500 195.256, 141.500 188.500 C 141.500 181.744, 141.413 181.494, 139 181.336 C 136.797 181.192, 136.767 181.230, 138.750 181.656 M 144.750 181.662 C 145.438 181.940, 146.563 181.940, 147.250 181.662 C 147.938 181.385, 147.375 181.158, 146 181.158 C 144.625 181.158, 144.063 181.385, 144.750 181.662 M 149.116 183.250 C 149.199 184.866, 149.358 185.021, 149.680 183.798 C 150.020 182.506, 151.497 182.010, 155.814 181.737 L 161.500 181.378 155.250 181.189 C 149.349 181.011, 149.006 181.125, 149.116 183.250 M 164.269 181.693 C 165.242 181.947, 166.592 181.930, 167.269 181.656 C 167.946 181.382, 167.150 181.175, 165.500 181.195 C 163.850 181.215, 163.296 181.439, 164.269 181.693 M 173.269 181.693 C 174.242 181.947, 175.592 181.930, 176.269 181.656 C 176.946 181.382, 176.150 181.175, 174.500 181.195 C 172.850 181.215, 172.296 181.439, 173.269 181.693 M 73.872 183.750 C 72.629 185.336, 72.664 185.371, 74.250 184.128 C 75.916 182.821, 76.445 182, 75.622 182 C 75.415 182, 74.627 182.787, 73.872 183.750 M 94 182.378 C 94 182.585, 94.787 183.373, 95.750 184.128 C 97.336 185.371, 97.371 185.336, 96.128 183.750 C 94.821 182.084, 94 181.555, 94 182.378 M 70.195 186.500 C 70.215 188.150, 70.439 188.704, 70.693 187.731 C 70.947 186.758, 70.930 185.408, 70.656 184.731 C 70.382 184.054, 70.175 184.850, 70.195 186.500 M 89.150 188.750 C 89.286 192.151, 89.341 192.221, 89.740 189.503 C 89.982 187.855, 90.702 186.174, 91.340 185.769 C 92.093 185.290, 91.886 185.025, 90.750 185.015 C 89.365 185.003, 89.031 185.783, 89.150 188.750 M 162.158 187 C 162.158 188.375, 162.385 188.938, 162.662 188.250 C 162.940 187.563, 162.940 186.438, 162.662 185.750 C 162.385 185.063, 162.158 185.625, 162.158 187 M 177.195 188.500 C 177.215 190.150, 177.439 190.704, 177.693 189.731 C 177.947 188.758, 177.930 187.408, 177.656 186.731 C 177.382 186.054, 177.175 186.850, 177.195 188.500 M 51.813 187.683 C 52.534 187.972, 53.397 187.936, 53.729 187.604 C 54.061 187.272, 53.471 187.036, 52.417 187.079 C 51.252 187.127, 51.015 187.364, 51.813 187.683 M 93.079 188.583 C 93.127 189.748, 93.364 189.985, 93.683 189.188 C 93.972 188.466, 93.936 187.603, 93.604 187.271 C 93.272 186.939, 93.036 187.529, 93.079 188.583 M 116 187.882 C 116 188.432, 116.450 189.160, 117 189.500 C 117.550 189.840, 118 189.668, 118 189.118 C 118 188.568, 117.550 187.840, 117 187.500 C 116.450 187.160, 116 187.332, 116 187.882 M 169 188.059 C 169 188.641, 169.450 188.840, 170 188.500 C 170.550 188.160, 171 187.684, 171 187.441 C 171 187.198, 170.550 187, 170 187 C 169.450 187, 169 187.477, 169 188.059 M 71.565 190.895 C 71.260 191.388, 71.661 192.040, 72.455 192.344 C 73.418 192.714, 73.713 192.416, 73.342 191.449 C 72.697 189.769, 72.331 189.655, 71.565 190.895 M 76.733 191.124 C 77.412 191.808, 78.219 192.115, 78.526 191.807 C 78.834 191.499, 78.279 190.940, 77.293 190.564 C 75.868 190.022, 75.753 190.136, 76.733 191.124 M 98.980 191.524 C 98.284 192.362, 97.909 193.242, 98.145 193.479 C 98.382 193.715, 99.125 193.030, 99.796 191.955 C 101.248 189.630, 100.764 189.375, 98.980 191.524 M 172.638 191.500 C 172.322 192.325, 172.499 193, 173.031 193 C 173.564 193, 174 192.325, 174 191.500 C 174 190.675, 173.823 190, 173.607 190 C 173.391 190, 172.955 190.675, 172.638 191.500 M 94.872 193.750 C 93.629 195.336, 93.664 195.371, 95.250 194.128 C 96.213 193.373, 97 192.585, 97 192.378 C 97 191.555, 96.179 192.084, 94.872 193.750 M 106.559 194.532 C 105.491 195.339, 105.099 196, 105.686 196 C 106.274 196, 107.315 195.325, 108 194.500 C 109.557 192.624, 109.067 192.634, 106.559 194.532 M 116 193.721 C 117.375 193.968, 118.927 194.581, 119.450 195.085 C 120.677 196.267, 124 196.273, 124 195.094 C 124 194.595, 123.151 194.409, 122.113 194.681 C 121.075 194.952, 119.923 194.685, 119.554 194.087 C 119.184 193.489, 117.671 193.061, 116.191 193.136 C 113.502 193.272, 113.502 193.273, 116 193.721 M 75.733 195.124 C 76.412 195.808, 77.219 196.115, 77.526 195.807 C 77.834 195.499, 77.279 194.940, 76.293 194.564 C 74.868 194.022, 74.753 194.136, 75.733 195.124 M 143.818 195.218 C 144.351 195.751, 145.623 196.011, 146.644 195.794 C 148.019 195.503, 147.767 195.251, 145.674 194.825 C 143.849 194.452, 143.192 194.592, 143.818 195.218 M 47.750 195.662 C 48.438 195.940, 49.563 195.940, 50.250 195.662 C 50.938 195.385, 50.375 195.158, 49 195.158 C 47.625 195.158, 47.063 195.385, 47.750 195.662 M 110.750 195.662 C 111.438 195.940, 112.563 195.940, 113.250 195.662 C 113.938 195.385, 113.375 195.158, 112 195.158 C 110.625 195.158, 110.063 195.385, 110.750 195.662 M 125.750 195.662 C 126.438 195.940, 127.563 195.940, 128.250 195.662 C 128.938 195.385, 128.375 195.158, 127 195.158 C 125.625 195.158, 125.063 195.385, 125.750 195.662 M 153.750 195.662 C 154.438 195.940, 155.563 195.940, 156.250 195.662 C 156.938 195.385, 156.375 195.158, 155 195.158 C 153.625 195.158, 153.063 195.385, 153.750 195.662 M 162.750 195.662 C 163.438 195.940, 164.563 195.940, 165.250 195.662 C 165.938 195.385, 165.375 195.158, 164 195.158 C 162.625 195.158, 162.063 195.385, 162.750 195.662 M 168.750 195.662 C 169.438 195.940, 170.563 195.940, 171.250 195.662 C 171.938 195.385, 171.375 195.158, 170 195.158 C 168.625 195.158, 168.063 195.385, 168.750 195.662 M 174.750 195.662 C 175.438 195.940, 176.563 195.940, 177.250 195.662 C 177.938 195.385, 177.375 195.158, 176 195.158 C 174.625 195.158, 174.063 195.385, 174.750 195.662" stroke="none" fill="#f6f5f5" fill-rule="evenodd"/></svg>